G04 EAGLE Gerber RS-274X export*
G75*
%MOMM*%
%FSLAX34Y34*%
%LPD*%
%INSilkscreen Top*%
%IPPOS*%
%AMOC8*
5,1,8,0,0,1.08239X$1,22.5*%
G01*
%ADD10C,0.127000*%
%ADD11C,0.203200*%
%ADD12C,0.177800*%
%ADD13C,0.152400*%
%ADD14R,0.508000X2.540000*%
%ADD15R,1.905000X0.762000*%
%ADD16R,2.540000X0.508000*%
%ADD17R,0.762000X1.905000*%
%ADD18C,0.254000*%
%ADD19C,0.101600*%
%ADD20R,1.016000X10.160000*%
%ADD21R,0.863600X0.609600*%
%ADD22R,0.609600X0.863600*%


D10*
X569595Y419735D02*
X569595Y433705D01*
X574252Y425944D01*
X578908Y433705D01*
X578908Y419735D01*
X772795Y474345D02*
X772795Y488315D01*
X777452Y480554D01*
X782108Y488315D01*
X782108Y474345D01*
X683895Y215265D02*
X683895Y201295D01*
X688552Y207504D02*
X683895Y215265D01*
X688552Y207504D02*
X693208Y215265D01*
X693208Y201295D01*
D11*
X567540Y142140D02*
X537740Y142140D01*
X567540Y142140D02*
X567540Y66140D01*
X537740Y66140D01*
X328940Y66140D02*
X328940Y142140D01*
X329902Y144677D01*
X330926Y147190D01*
X332011Y149676D01*
X333156Y152136D01*
X334361Y154567D01*
X335624Y156968D01*
X336946Y159337D01*
X338326Y161673D01*
X339762Y163975D01*
X341254Y166241D01*
X342801Y168470D01*
X344401Y170661D01*
X346055Y172811D01*
X347760Y174921D01*
X349517Y176989D01*
X351324Y179013D01*
X353179Y180993D01*
X355082Y182926D01*
X357032Y184813D01*
X359027Y186651D01*
X361067Y188440D01*
X363150Y190179D01*
X365274Y191866D01*
X367439Y193502D01*
X369643Y195083D01*
X371886Y196611D01*
X374164Y198083D01*
X376478Y199500D01*
X378826Y200859D01*
X381207Y202161D01*
X383618Y203404D01*
X386059Y204588D01*
X388529Y205712D01*
X391025Y206775D01*
X393546Y207777D01*
X396091Y208718D01*
X398658Y209596D01*
X401246Y210411D01*
X403853Y211162D01*
X406477Y211850D01*
X409118Y212474D01*
X411772Y213032D01*
X414440Y213526D01*
X417119Y213955D01*
X419808Y214318D01*
X422505Y214616D01*
X425208Y214847D01*
X427916Y215013D01*
X430627Y215112D01*
X433340Y215145D01*
X436053Y215112D01*
X438764Y215013D01*
X441472Y214847D01*
X444175Y214616D01*
X446872Y214318D01*
X449561Y213955D01*
X452240Y213526D01*
X454908Y213032D01*
X457562Y212474D01*
X460203Y211850D01*
X462827Y211162D01*
X465434Y210411D01*
X468022Y209596D01*
X470589Y208718D01*
X473134Y207777D01*
X475655Y206775D01*
X478151Y205712D01*
X480621Y204588D01*
X483062Y203404D01*
X485473Y202161D01*
X487854Y200859D01*
X490202Y199500D01*
X492516Y198083D01*
X494794Y196611D01*
X497037Y195083D01*
X499241Y193502D01*
X501406Y191866D01*
X503530Y190179D01*
X505613Y188440D01*
X507653Y186651D01*
X509648Y184813D01*
X511598Y182926D01*
X513501Y180993D01*
X515356Y179013D01*
X517163Y176989D01*
X518920Y174921D01*
X520625Y172811D01*
X522279Y170661D01*
X523879Y168470D01*
X525426Y166241D01*
X526918Y163975D01*
X528354Y161673D01*
X529734Y159337D01*
X531056Y156968D01*
X532319Y154567D01*
X533524Y152136D01*
X534669Y149676D01*
X535754Y147190D01*
X536778Y144677D01*
X537740Y142140D01*
X537740Y66140D02*
X536778Y63603D01*
X535754Y61090D01*
X534669Y58604D01*
X533524Y56144D01*
X532319Y53713D01*
X531056Y51312D01*
X529734Y48943D01*
X528354Y46607D01*
X526918Y44305D01*
X525426Y42039D01*
X523879Y39810D01*
X522279Y37619D01*
X520625Y35469D01*
X518920Y33359D01*
X517163Y31291D01*
X515356Y29267D01*
X513501Y27287D01*
X511598Y25354D01*
X509648Y23467D01*
X507653Y21629D01*
X505613Y19840D01*
X503530Y18101D01*
X501406Y16414D01*
X499241Y14778D01*
X497037Y13197D01*
X494794Y11669D01*
X492516Y10197D01*
X490202Y8780D01*
X487854Y7421D01*
X485473Y6119D01*
X483062Y4876D01*
X480621Y3692D01*
X478151Y2568D01*
X475655Y1505D01*
X473134Y503D01*
X470589Y-438D01*
X468022Y-1316D01*
X465434Y-2131D01*
X462827Y-2882D01*
X460203Y-3570D01*
X457562Y-4194D01*
X454908Y-4752D01*
X452240Y-5246D01*
X449561Y-5675D01*
X446872Y-6038D01*
X444175Y-6336D01*
X441472Y-6567D01*
X438764Y-6733D01*
X436053Y-6832D01*
X433340Y-6865D01*
X430627Y-6832D01*
X427916Y-6733D01*
X425208Y-6567D01*
X422505Y-6336D01*
X419808Y-6038D01*
X417119Y-5675D01*
X414440Y-5246D01*
X411772Y-4752D01*
X409118Y-4194D01*
X406477Y-3570D01*
X403853Y-2882D01*
X401246Y-2131D01*
X398658Y-1316D01*
X396091Y-438D01*
X393546Y503D01*
X391025Y1505D01*
X388529Y2568D01*
X386059Y3692D01*
X383618Y4876D01*
X381207Y6119D01*
X378826Y7421D01*
X376478Y8780D01*
X374164Y10197D01*
X371886Y11669D01*
X369643Y13197D01*
X367439Y14778D01*
X365274Y16414D01*
X363150Y18101D01*
X361067Y19840D01*
X359027Y21629D01*
X357032Y23467D01*
X355082Y25354D01*
X353179Y27287D01*
X351324Y29267D01*
X349517Y31291D01*
X347760Y33359D01*
X346055Y35469D01*
X344401Y37619D01*
X342801Y39810D01*
X341254Y42039D01*
X339762Y44305D01*
X338326Y46607D01*
X336946Y48943D01*
X335624Y51312D01*
X334361Y53713D01*
X333156Y56144D01*
X332011Y58604D01*
X330926Y61090D01*
X329902Y63603D01*
X328940Y66140D01*
D12*
X427101Y87636D02*
X427101Y90402D01*
X427101Y87636D02*
X427099Y87533D01*
X427093Y87429D01*
X427084Y87326D01*
X427070Y87224D01*
X427053Y87122D01*
X427032Y87021D01*
X427007Y86920D01*
X426978Y86821D01*
X426946Y86722D01*
X426910Y86625D01*
X426870Y86530D01*
X426827Y86436D01*
X426780Y86344D01*
X426730Y86253D01*
X426677Y86164D01*
X426620Y86078D01*
X426561Y85993D01*
X426498Y85911D01*
X426432Y85832D01*
X426363Y85755D01*
X426291Y85680D01*
X426216Y85608D01*
X426139Y85539D01*
X426060Y85473D01*
X425978Y85410D01*
X425893Y85351D01*
X425807Y85294D01*
X425718Y85241D01*
X425627Y85191D01*
X425535Y85144D01*
X425441Y85101D01*
X425346Y85061D01*
X425249Y85025D01*
X425150Y84993D01*
X425051Y84964D01*
X424950Y84939D01*
X424849Y84918D01*
X424747Y84901D01*
X424645Y84887D01*
X424542Y84878D01*
X424438Y84872D01*
X424335Y84870D01*
X417421Y84870D01*
X417318Y84872D01*
X417214Y84878D01*
X417111Y84887D01*
X417009Y84901D01*
X416907Y84918D01*
X416806Y84939D01*
X416705Y84964D01*
X416606Y84993D01*
X416507Y85025D01*
X416410Y85061D01*
X416315Y85101D01*
X416221Y85144D01*
X416129Y85191D01*
X416038Y85241D01*
X415949Y85294D01*
X415863Y85351D01*
X415779Y85410D01*
X415696Y85473D01*
X415617Y85539D01*
X415540Y85608D01*
X415465Y85680D01*
X415393Y85755D01*
X415324Y85832D01*
X415258Y85911D01*
X415196Y85993D01*
X415136Y86078D01*
X415079Y86164D01*
X415026Y86253D01*
X414976Y86343D01*
X414929Y86436D01*
X414886Y86530D01*
X414846Y86625D01*
X414810Y86722D01*
X414778Y86821D01*
X414749Y86920D01*
X414724Y87020D01*
X414703Y87122D01*
X414686Y87224D01*
X414672Y87326D01*
X414663Y87429D01*
X414657Y87533D01*
X414655Y87636D01*
X414655Y90402D01*
X418112Y95586D02*
X423644Y95586D01*
X418112Y95586D02*
X417995Y95588D01*
X417879Y95594D01*
X417762Y95604D01*
X417646Y95618D01*
X417531Y95635D01*
X417416Y95657D01*
X417302Y95682D01*
X417189Y95711D01*
X417077Y95745D01*
X416966Y95781D01*
X416857Y95822D01*
X416749Y95866D01*
X416642Y95914D01*
X416537Y95965D01*
X416434Y96020D01*
X416333Y96079D01*
X416234Y96141D01*
X416137Y96206D01*
X416042Y96274D01*
X415950Y96345D01*
X415860Y96420D01*
X415773Y96498D01*
X415688Y96578D01*
X415606Y96661D01*
X415527Y96747D01*
X415451Y96836D01*
X415378Y96927D01*
X415308Y97020D01*
X415242Y97116D01*
X415178Y97214D01*
X415118Y97315D01*
X415061Y97417D01*
X415008Y97521D01*
X414959Y97626D01*
X414913Y97734D01*
X414870Y97842D01*
X414831Y97953D01*
X414797Y98064D01*
X414765Y98176D01*
X414738Y98290D01*
X414714Y98404D01*
X414695Y98520D01*
X414679Y98635D01*
X414667Y98751D01*
X414659Y98868D01*
X414655Y98985D01*
X414655Y99101D01*
X414659Y99218D01*
X414667Y99335D01*
X414679Y99451D01*
X414695Y99566D01*
X414714Y99682D01*
X414738Y99796D01*
X414765Y99910D01*
X414797Y100022D01*
X414831Y100133D01*
X414870Y100244D01*
X414913Y100352D01*
X414959Y100460D01*
X415008Y100565D01*
X415061Y100669D01*
X415118Y100772D01*
X415178Y100872D01*
X415242Y100970D01*
X415308Y101066D01*
X415378Y101159D01*
X415451Y101250D01*
X415527Y101339D01*
X415606Y101425D01*
X415688Y101508D01*
X415773Y101588D01*
X415860Y101666D01*
X415950Y101741D01*
X416042Y101812D01*
X416137Y101880D01*
X416234Y101945D01*
X416333Y102007D01*
X416434Y102066D01*
X416537Y102121D01*
X416642Y102172D01*
X416749Y102220D01*
X416857Y102264D01*
X416966Y102305D01*
X417077Y102341D01*
X417189Y102375D01*
X417302Y102404D01*
X417416Y102429D01*
X417531Y102451D01*
X417646Y102468D01*
X417762Y102482D01*
X417879Y102492D01*
X417995Y102498D01*
X418112Y102500D01*
X423644Y102500D01*
X423761Y102498D01*
X423877Y102492D01*
X423994Y102482D01*
X424110Y102468D01*
X424225Y102451D01*
X424340Y102429D01*
X424454Y102404D01*
X424567Y102375D01*
X424679Y102341D01*
X424790Y102305D01*
X424899Y102264D01*
X425007Y102220D01*
X425114Y102172D01*
X425219Y102121D01*
X425322Y102066D01*
X425423Y102007D01*
X425522Y101945D01*
X425619Y101880D01*
X425714Y101812D01*
X425806Y101741D01*
X425896Y101666D01*
X425983Y101588D01*
X426068Y101508D01*
X426150Y101425D01*
X426229Y101339D01*
X426305Y101250D01*
X426378Y101159D01*
X426448Y101066D01*
X426514Y100970D01*
X426578Y100872D01*
X426638Y100771D01*
X426695Y100669D01*
X426748Y100565D01*
X426797Y100460D01*
X426843Y100352D01*
X426886Y100244D01*
X426925Y100133D01*
X426959Y100022D01*
X426991Y99910D01*
X427018Y99796D01*
X427042Y99682D01*
X427061Y99566D01*
X427077Y99451D01*
X427089Y99335D01*
X427097Y99218D01*
X427101Y99101D01*
X427101Y98985D01*
X427097Y98868D01*
X427089Y98751D01*
X427077Y98635D01*
X427061Y98520D01*
X427042Y98404D01*
X427018Y98290D01*
X426991Y98176D01*
X426959Y98064D01*
X426925Y97953D01*
X426886Y97842D01*
X426843Y97734D01*
X426797Y97626D01*
X426748Y97521D01*
X426695Y97417D01*
X426638Y97314D01*
X426578Y97214D01*
X426514Y97116D01*
X426448Y97020D01*
X426378Y96927D01*
X426305Y96836D01*
X426229Y96747D01*
X426150Y96661D01*
X426068Y96578D01*
X425983Y96498D01*
X425896Y96420D01*
X425806Y96345D01*
X425714Y96274D01*
X425619Y96206D01*
X425522Y96141D01*
X425423Y96079D01*
X425322Y96020D01*
X425219Y95965D01*
X425114Y95914D01*
X425007Y95866D01*
X424899Y95822D01*
X424790Y95781D01*
X424679Y95745D01*
X424567Y95711D01*
X424454Y95682D01*
X424340Y95657D01*
X424225Y95635D01*
X424110Y95618D01*
X423994Y95604D01*
X423877Y95594D01*
X423761Y95588D01*
X423644Y95586D01*
X427101Y109284D02*
X414655Y109284D01*
X427101Y107902D02*
X427101Y110667D01*
X414655Y110667D02*
X414655Y107902D01*
X414655Y116495D02*
X427101Y116495D01*
X427101Y123410D02*
X414655Y116495D01*
X414655Y123410D02*
X427101Y123410D01*
D13*
X525780Y515620D02*
X566420Y515620D01*
X566420Y541020D01*
X525780Y541020D01*
X525780Y515620D01*
X539750Y528320D02*
X546100Y528320D01*
X556260Y534670D02*
X556260Y521970D01*
X546100Y528320D01*
X561340Y528320D01*
X556260Y534670D02*
X546100Y528320D01*
X546100Y534670D01*
X546100Y528320D02*
X546100Y521970D01*
D14*
X532130Y528320D03*
D15*
X575945Y528320D03*
X516255Y528320D03*
D10*
X577215Y518795D02*
X577215Y507365D01*
X577215Y518795D02*
X580390Y518795D01*
X580501Y518793D01*
X580611Y518787D01*
X580722Y518778D01*
X580832Y518764D01*
X580941Y518747D01*
X581050Y518726D01*
X581158Y518701D01*
X581265Y518672D01*
X581371Y518640D01*
X581476Y518604D01*
X581579Y518564D01*
X581681Y518521D01*
X581782Y518474D01*
X581881Y518423D01*
X581978Y518370D01*
X582072Y518313D01*
X582165Y518252D01*
X582256Y518189D01*
X582345Y518122D01*
X582431Y518052D01*
X582514Y517979D01*
X582596Y517904D01*
X582674Y517826D01*
X582749Y517744D01*
X582822Y517661D01*
X582892Y517575D01*
X582959Y517486D01*
X583022Y517395D01*
X583083Y517302D01*
X583140Y517208D01*
X583193Y517111D01*
X583244Y517012D01*
X583291Y516911D01*
X583334Y516809D01*
X583374Y516706D01*
X583410Y516601D01*
X583442Y516495D01*
X583471Y516388D01*
X583496Y516280D01*
X583517Y516171D01*
X583534Y516062D01*
X583548Y515952D01*
X583557Y515841D01*
X583563Y515731D01*
X583565Y515620D01*
X583565Y510540D01*
X583563Y510429D01*
X583557Y510319D01*
X583548Y510208D01*
X583534Y510098D01*
X583517Y509989D01*
X583496Y509880D01*
X583471Y509772D01*
X583442Y509665D01*
X583410Y509559D01*
X583374Y509454D01*
X583334Y509351D01*
X583291Y509249D01*
X583244Y509148D01*
X583193Y509049D01*
X583140Y508952D01*
X583083Y508858D01*
X583022Y508765D01*
X582959Y508674D01*
X582892Y508585D01*
X582822Y508499D01*
X582749Y508416D01*
X582674Y508334D01*
X582596Y508256D01*
X582514Y508181D01*
X582431Y508108D01*
X582345Y508038D01*
X582256Y507971D01*
X582165Y507908D01*
X582072Y507847D01*
X581978Y507790D01*
X581881Y507737D01*
X581782Y507686D01*
X581681Y507639D01*
X581579Y507596D01*
X581476Y507556D01*
X581371Y507520D01*
X581265Y507488D01*
X581158Y507459D01*
X581050Y507434D01*
X580941Y507413D01*
X580832Y507396D01*
X580722Y507382D01*
X580611Y507373D01*
X580501Y507367D01*
X580390Y507365D01*
X577215Y507365D01*
X589026Y516255D02*
X592201Y518795D01*
X592201Y507365D01*
X589026Y507365D02*
X595376Y507365D01*
D13*
X647700Y124460D02*
X647700Y83820D01*
X673100Y83820D01*
X673100Y124460D01*
X647700Y124460D01*
X660400Y110490D02*
X660400Y104140D01*
X666750Y93980D02*
X654050Y93980D01*
X660400Y104140D01*
X660400Y88900D01*
X666750Y93980D02*
X660400Y104140D01*
X666750Y104140D01*
X660400Y104140D02*
X654050Y104140D01*
D16*
X660400Y118110D03*
D17*
X660400Y74295D03*
X660400Y133985D03*
D10*
X650875Y131064D02*
X639445Y131064D01*
X639445Y134239D01*
X639447Y134350D01*
X639453Y134460D01*
X639462Y134571D01*
X639476Y134681D01*
X639493Y134790D01*
X639514Y134899D01*
X639539Y135007D01*
X639568Y135114D01*
X639600Y135220D01*
X639636Y135325D01*
X639676Y135428D01*
X639719Y135530D01*
X639766Y135631D01*
X639817Y135730D01*
X639870Y135827D01*
X639927Y135921D01*
X639988Y136014D01*
X640051Y136105D01*
X640118Y136194D01*
X640188Y136280D01*
X640261Y136363D01*
X640336Y136445D01*
X640414Y136523D01*
X640496Y136598D01*
X640579Y136671D01*
X640665Y136741D01*
X640754Y136808D01*
X640845Y136871D01*
X640938Y136932D01*
X641033Y136989D01*
X641129Y137042D01*
X641228Y137093D01*
X641329Y137140D01*
X641431Y137183D01*
X641534Y137223D01*
X641639Y137259D01*
X641745Y137291D01*
X641852Y137320D01*
X641960Y137345D01*
X642069Y137366D01*
X642178Y137383D01*
X642288Y137397D01*
X642399Y137406D01*
X642509Y137412D01*
X642620Y137414D01*
X647700Y137414D01*
X647811Y137412D01*
X647921Y137406D01*
X648032Y137397D01*
X648142Y137383D01*
X648251Y137366D01*
X648360Y137345D01*
X648468Y137320D01*
X648575Y137291D01*
X648681Y137259D01*
X648786Y137223D01*
X648889Y137183D01*
X648991Y137140D01*
X649092Y137093D01*
X649191Y137042D01*
X649288Y136989D01*
X649382Y136932D01*
X649475Y136871D01*
X649566Y136808D01*
X649655Y136741D01*
X649741Y136671D01*
X649824Y136598D01*
X649906Y136523D01*
X649984Y136445D01*
X650059Y136363D01*
X650132Y136280D01*
X650202Y136194D01*
X650269Y136105D01*
X650332Y136014D01*
X650393Y135921D01*
X650450Y135827D01*
X650503Y135730D01*
X650554Y135631D01*
X650601Y135530D01*
X650644Y135428D01*
X650684Y135325D01*
X650720Y135220D01*
X650752Y135114D01*
X650781Y135007D01*
X650806Y134899D01*
X650827Y134790D01*
X650844Y134681D01*
X650858Y134571D01*
X650867Y134460D01*
X650873Y134350D01*
X650875Y134239D01*
X650875Y131064D01*
X639445Y146368D02*
X639447Y146472D01*
X639453Y146577D01*
X639462Y146681D01*
X639475Y146784D01*
X639493Y146887D01*
X639513Y146989D01*
X639538Y147091D01*
X639566Y147191D01*
X639598Y147291D01*
X639634Y147389D01*
X639673Y147486D01*
X639715Y147581D01*
X639761Y147675D01*
X639811Y147767D01*
X639863Y147857D01*
X639919Y147945D01*
X639979Y148031D01*
X640041Y148115D01*
X640106Y148196D01*
X640174Y148275D01*
X640246Y148352D01*
X640319Y148425D01*
X640396Y148497D01*
X640475Y148565D01*
X640556Y148630D01*
X640640Y148692D01*
X640726Y148752D01*
X640814Y148808D01*
X640904Y148860D01*
X640996Y148910D01*
X641090Y148956D01*
X641185Y148998D01*
X641282Y149037D01*
X641380Y149073D01*
X641480Y149105D01*
X641580Y149133D01*
X641682Y149158D01*
X641784Y149178D01*
X641887Y149196D01*
X641990Y149209D01*
X642094Y149218D01*
X642199Y149224D01*
X642303Y149226D01*
X639445Y146368D02*
X639447Y146250D01*
X639453Y146131D01*
X639462Y146013D01*
X639475Y145896D01*
X639493Y145779D01*
X639513Y145662D01*
X639538Y145546D01*
X639566Y145431D01*
X639599Y145318D01*
X639634Y145205D01*
X639674Y145093D01*
X639716Y144983D01*
X639763Y144874D01*
X639813Y144766D01*
X639866Y144661D01*
X639923Y144557D01*
X639983Y144455D01*
X640046Y144355D01*
X640113Y144257D01*
X640182Y144161D01*
X640255Y144068D01*
X640331Y143977D01*
X640409Y143888D01*
X640491Y143802D01*
X640575Y143719D01*
X640661Y143638D01*
X640751Y143561D01*
X640842Y143486D01*
X640936Y143414D01*
X641033Y143345D01*
X641131Y143280D01*
X641232Y143217D01*
X641335Y143158D01*
X641439Y143102D01*
X641545Y143050D01*
X641653Y143001D01*
X641762Y142956D01*
X641873Y142914D01*
X641985Y142876D01*
X644525Y148273D02*
X644450Y148349D01*
X644371Y148424D01*
X644290Y148495D01*
X644206Y148564D01*
X644120Y148629D01*
X644032Y148691D01*
X643942Y148751D01*
X643850Y148807D01*
X643755Y148860D01*
X643659Y148909D01*
X643561Y148955D01*
X643462Y148998D01*
X643361Y149037D01*
X643259Y149072D01*
X643156Y149104D01*
X643052Y149132D01*
X642947Y149157D01*
X642840Y149178D01*
X642734Y149195D01*
X642627Y149208D01*
X642519Y149217D01*
X642411Y149223D01*
X642303Y149225D01*
X644525Y148273D02*
X650875Y142875D01*
X650875Y149225D01*
D13*
X278130Y246380D02*
X265430Y246380D01*
X278130Y246380D02*
X284480Y240030D01*
X284480Y227330D01*
X278130Y220980D01*
X259080Y227330D02*
X259080Y240030D01*
X265430Y246380D01*
X259080Y227330D02*
X265430Y220980D01*
X278130Y220980D01*
X284480Y240030D02*
X290830Y246380D01*
X303530Y246380D01*
X309880Y240030D01*
X309880Y227330D01*
X303530Y220980D01*
X290830Y220980D01*
X284480Y227330D01*
D10*
X297053Y213233D02*
X297053Y201803D01*
X297053Y208153D02*
X303403Y208153D01*
X303403Y213233D02*
X303403Y201803D01*
X308864Y204343D02*
X311404Y213233D01*
X308864Y204343D02*
X315214Y204343D01*
X313309Y206883D02*
X313309Y201803D01*
D13*
X741680Y303530D02*
X741680Y316230D01*
X741680Y303530D02*
X735330Y297180D01*
X722630Y297180D01*
X716280Y303530D01*
X735330Y297180D02*
X741680Y290830D01*
X741680Y278130D01*
X735330Y271780D01*
X722630Y271780D01*
X716280Y278130D01*
X716280Y290830D01*
X722630Y297180D01*
X722630Y322580D02*
X735330Y322580D01*
X741680Y316230D01*
X722630Y322580D02*
X716280Y316230D01*
X716280Y303530D01*
X735330Y271780D02*
X741680Y265430D01*
X741680Y252730D01*
X735330Y246380D01*
X722630Y246380D01*
X716280Y252730D01*
X716280Y265430D01*
X722630Y271780D01*
D10*
X747903Y304546D02*
X759333Y304546D01*
X752983Y304546D02*
X752983Y310896D01*
X747903Y310896D02*
X759333Y310896D01*
X759333Y316357D02*
X759333Y319532D01*
X759331Y319643D01*
X759325Y319753D01*
X759316Y319864D01*
X759302Y319974D01*
X759285Y320083D01*
X759264Y320192D01*
X759239Y320300D01*
X759210Y320407D01*
X759178Y320513D01*
X759142Y320618D01*
X759102Y320721D01*
X759059Y320823D01*
X759012Y320924D01*
X758961Y321023D01*
X758908Y321120D01*
X758851Y321214D01*
X758790Y321307D01*
X758727Y321398D01*
X758660Y321487D01*
X758590Y321573D01*
X758517Y321656D01*
X758442Y321738D01*
X758364Y321816D01*
X758282Y321891D01*
X758199Y321964D01*
X758113Y322034D01*
X758024Y322101D01*
X757933Y322164D01*
X757840Y322225D01*
X757746Y322282D01*
X757649Y322335D01*
X757550Y322386D01*
X757449Y322433D01*
X757347Y322476D01*
X757244Y322516D01*
X757139Y322552D01*
X757033Y322584D01*
X756926Y322613D01*
X756818Y322638D01*
X756709Y322659D01*
X756600Y322676D01*
X756490Y322690D01*
X756379Y322699D01*
X756269Y322705D01*
X756158Y322707D01*
X756047Y322705D01*
X755937Y322699D01*
X755826Y322690D01*
X755716Y322676D01*
X755607Y322659D01*
X755498Y322638D01*
X755390Y322613D01*
X755283Y322584D01*
X755177Y322552D01*
X755072Y322516D01*
X754969Y322476D01*
X754867Y322433D01*
X754766Y322386D01*
X754667Y322335D01*
X754571Y322282D01*
X754476Y322225D01*
X754383Y322164D01*
X754292Y322101D01*
X754203Y322034D01*
X754117Y321964D01*
X754034Y321891D01*
X753952Y321816D01*
X753874Y321738D01*
X753799Y321656D01*
X753726Y321573D01*
X753656Y321487D01*
X753589Y321398D01*
X753526Y321307D01*
X753465Y321214D01*
X753408Y321120D01*
X753355Y321023D01*
X753304Y320924D01*
X753257Y320823D01*
X753214Y320721D01*
X753174Y320618D01*
X753138Y320513D01*
X753106Y320407D01*
X753077Y320300D01*
X753052Y320192D01*
X753031Y320083D01*
X753014Y319974D01*
X753000Y319864D01*
X752991Y319753D01*
X752985Y319643D01*
X752983Y319532D01*
X747903Y320167D02*
X747903Y316357D01*
X747903Y320167D02*
X747905Y320267D01*
X747911Y320366D01*
X747921Y320466D01*
X747934Y320564D01*
X747952Y320663D01*
X747973Y320760D01*
X747998Y320856D01*
X748027Y320952D01*
X748060Y321046D01*
X748096Y321139D01*
X748136Y321230D01*
X748180Y321320D01*
X748227Y321408D01*
X748277Y321494D01*
X748331Y321578D01*
X748388Y321660D01*
X748448Y321739D01*
X748512Y321817D01*
X748578Y321891D01*
X748647Y321963D01*
X748719Y322032D01*
X748793Y322098D01*
X748871Y322162D01*
X748950Y322222D01*
X749032Y322279D01*
X749116Y322333D01*
X749202Y322383D01*
X749290Y322430D01*
X749380Y322474D01*
X749471Y322514D01*
X749564Y322550D01*
X749658Y322583D01*
X749754Y322612D01*
X749850Y322637D01*
X749947Y322658D01*
X750046Y322676D01*
X750144Y322689D01*
X750244Y322699D01*
X750343Y322705D01*
X750443Y322707D01*
X750543Y322705D01*
X750642Y322699D01*
X750742Y322689D01*
X750840Y322676D01*
X750939Y322658D01*
X751036Y322637D01*
X751132Y322612D01*
X751228Y322583D01*
X751322Y322550D01*
X751415Y322514D01*
X751506Y322474D01*
X751596Y322430D01*
X751684Y322383D01*
X751770Y322333D01*
X751854Y322279D01*
X751936Y322222D01*
X752015Y322162D01*
X752093Y322098D01*
X752167Y322032D01*
X752239Y321963D01*
X752308Y321891D01*
X752374Y321817D01*
X752438Y321739D01*
X752498Y321660D01*
X752555Y321578D01*
X752609Y321494D01*
X752659Y321408D01*
X752706Y321320D01*
X752750Y321230D01*
X752790Y321139D01*
X752826Y321046D01*
X752859Y320952D01*
X752888Y320856D01*
X752913Y320760D01*
X752934Y320663D01*
X752952Y320564D01*
X752965Y320466D01*
X752975Y320366D01*
X752981Y320267D01*
X752983Y320167D01*
X752983Y317627D01*
D13*
X584200Y139700D02*
X571500Y139700D01*
X565150Y146050D01*
X565150Y158750D01*
X571500Y165100D01*
X565150Y146050D02*
X558800Y139700D01*
X546100Y139700D01*
X539750Y146050D01*
X539750Y158750D01*
X546100Y165100D01*
X558800Y165100D01*
X565150Y158750D01*
X590550Y158750D02*
X590550Y146050D01*
X584200Y139700D01*
X590550Y158750D02*
X584200Y165100D01*
X571500Y165100D01*
X539750Y146050D02*
X533400Y139700D01*
X520700Y139700D01*
X514350Y146050D01*
X514350Y158750D01*
X520700Y165100D01*
X533400Y165100D01*
X539750Y158750D01*
D10*
X590594Y133477D02*
X590594Y122047D01*
X589324Y122047D02*
X591864Y122047D01*
X591864Y133477D02*
X589324Y133477D01*
X597027Y133477D02*
X597027Y122047D01*
X597027Y133477D02*
X600202Y133477D01*
X600313Y133475D01*
X600423Y133469D01*
X600534Y133460D01*
X600644Y133446D01*
X600753Y133429D01*
X600862Y133408D01*
X600970Y133383D01*
X601077Y133354D01*
X601183Y133322D01*
X601288Y133286D01*
X601391Y133246D01*
X601493Y133203D01*
X601594Y133156D01*
X601693Y133105D01*
X601790Y133052D01*
X601884Y132995D01*
X601977Y132934D01*
X602068Y132871D01*
X602157Y132804D01*
X602243Y132734D01*
X602326Y132661D01*
X602408Y132586D01*
X602486Y132508D01*
X602561Y132426D01*
X602634Y132343D01*
X602704Y132257D01*
X602771Y132168D01*
X602834Y132077D01*
X602895Y131984D01*
X602952Y131889D01*
X603005Y131793D01*
X603056Y131694D01*
X603103Y131593D01*
X603146Y131491D01*
X603186Y131388D01*
X603222Y131283D01*
X603254Y131177D01*
X603283Y131070D01*
X603308Y130962D01*
X603329Y130853D01*
X603346Y130744D01*
X603360Y130634D01*
X603369Y130523D01*
X603375Y130413D01*
X603377Y130302D01*
X603375Y130191D01*
X603369Y130081D01*
X603360Y129970D01*
X603346Y129860D01*
X603329Y129751D01*
X603308Y129642D01*
X603283Y129534D01*
X603254Y129427D01*
X603222Y129321D01*
X603186Y129216D01*
X603146Y129113D01*
X603103Y129011D01*
X603056Y128910D01*
X603005Y128811D01*
X602952Y128714D01*
X602895Y128620D01*
X602834Y128527D01*
X602771Y128436D01*
X602704Y128347D01*
X602634Y128261D01*
X602561Y128178D01*
X602486Y128096D01*
X602408Y128018D01*
X602326Y127943D01*
X602243Y127870D01*
X602157Y127800D01*
X602068Y127733D01*
X601977Y127670D01*
X601884Y127609D01*
X601790Y127552D01*
X601693Y127499D01*
X601594Y127448D01*
X601493Y127401D01*
X601391Y127358D01*
X601288Y127318D01*
X601183Y127282D01*
X601077Y127250D01*
X600970Y127221D01*
X600862Y127196D01*
X600753Y127175D01*
X600644Y127158D01*
X600534Y127144D01*
X600423Y127135D01*
X600313Y127129D01*
X600202Y127127D01*
X597027Y127127D01*
X600837Y127127D02*
X603377Y122047D01*
X805180Y412750D02*
X805180Y416560D01*
D18*
X817880Y412750D02*
X817880Y441960D01*
X817880Y412750D02*
X805180Y412750D01*
X802640Y412750D01*
X741680Y412750D01*
X665480Y412750D02*
X665480Y441960D01*
X665480Y412750D02*
X741680Y412750D01*
X817880Y441960D02*
X817880Y471170D01*
X742950Y471170D01*
X665480Y471170D02*
X665480Y441960D01*
X665480Y471170D02*
X742950Y471170D01*
X811530Y471170D02*
X815340Y471170D01*
X811530Y471170D02*
X811530Y464820D01*
X798830Y464820D01*
X798830Y471170D01*
X786130Y471170D01*
X786130Y464820D01*
X773430Y464820D01*
X773430Y471170D01*
X760730Y471170D01*
X760730Y464820D01*
X748030Y464820D01*
X748030Y471170D01*
X735330Y471170D01*
X735330Y464820D01*
X722630Y464820D01*
X722630Y471170D01*
X709930Y471170D01*
X709930Y464820D01*
X697230Y464820D01*
X697230Y471170D01*
X684530Y471170D01*
X684530Y464820D01*
X671830Y464820D01*
X671830Y471170D01*
X665480Y471170D01*
X805180Y422910D02*
X805180Y412750D01*
X805180Y422910D02*
X802640Y422910D01*
X680720Y422910D01*
X678180Y422910D01*
X678180Y412750D01*
X802640Y427990D02*
X805180Y422910D01*
X802640Y422910D02*
X802640Y412750D01*
X802640Y427990D02*
X680720Y427990D01*
X678180Y422910D01*
X680720Y422910D02*
X680720Y412750D01*
D12*
X654982Y442215D02*
X658016Y444642D01*
X658016Y433720D01*
X654982Y433720D02*
X661050Y433720D01*
X822622Y440550D02*
X826263Y440550D01*
X826361Y440548D01*
X826458Y440542D01*
X826556Y440532D01*
X826652Y440519D01*
X826748Y440501D01*
X826844Y440479D01*
X826938Y440454D01*
X827032Y440425D01*
X827124Y440392D01*
X827214Y440356D01*
X827303Y440316D01*
X827391Y440272D01*
X827477Y440225D01*
X827560Y440174D01*
X827642Y440120D01*
X827721Y440063D01*
X827798Y440003D01*
X827872Y439940D01*
X827944Y439873D01*
X828013Y439804D01*
X828080Y439732D01*
X828143Y439658D01*
X828203Y439581D01*
X828260Y439502D01*
X828314Y439420D01*
X828365Y439337D01*
X828412Y439251D01*
X828456Y439163D01*
X828496Y439074D01*
X828532Y438984D01*
X828565Y438892D01*
X828594Y438798D01*
X828619Y438704D01*
X828641Y438608D01*
X828659Y438512D01*
X828672Y438416D01*
X828682Y438318D01*
X828688Y438221D01*
X828690Y438123D01*
X828690Y437516D01*
X828688Y437408D01*
X828682Y437300D01*
X828673Y437192D01*
X828659Y437084D01*
X828642Y436977D01*
X828621Y436871D01*
X828596Y436766D01*
X828567Y436661D01*
X828535Y436558D01*
X828499Y436456D01*
X828459Y436355D01*
X828416Y436256D01*
X828369Y436158D01*
X828319Y436062D01*
X828265Y435968D01*
X828208Y435876D01*
X828148Y435786D01*
X828085Y435698D01*
X828018Y435612D01*
X827949Y435529D01*
X827877Y435449D01*
X827801Y435371D01*
X827723Y435295D01*
X827643Y435223D01*
X827560Y435154D01*
X827474Y435087D01*
X827386Y435024D01*
X827296Y434964D01*
X827204Y434907D01*
X827110Y434853D01*
X827014Y434803D01*
X826916Y434756D01*
X826817Y434713D01*
X826716Y434673D01*
X826614Y434637D01*
X826511Y434605D01*
X826406Y434576D01*
X826301Y434551D01*
X826195Y434530D01*
X826088Y434513D01*
X825980Y434499D01*
X825872Y434490D01*
X825764Y434484D01*
X825656Y434482D01*
X825548Y434484D01*
X825440Y434490D01*
X825332Y434499D01*
X825224Y434513D01*
X825117Y434530D01*
X825011Y434551D01*
X824906Y434576D01*
X824801Y434605D01*
X824698Y434637D01*
X824596Y434673D01*
X824495Y434713D01*
X824396Y434756D01*
X824298Y434803D01*
X824202Y434853D01*
X824108Y434907D01*
X824016Y434964D01*
X823926Y435024D01*
X823838Y435087D01*
X823752Y435154D01*
X823669Y435223D01*
X823589Y435295D01*
X823511Y435371D01*
X823435Y435449D01*
X823363Y435529D01*
X823294Y435612D01*
X823227Y435698D01*
X823164Y435786D01*
X823104Y435876D01*
X823047Y435968D01*
X822993Y436062D01*
X822943Y436158D01*
X822896Y436256D01*
X822853Y436355D01*
X822813Y436456D01*
X822777Y436558D01*
X822745Y436661D01*
X822716Y436766D01*
X822691Y436871D01*
X822670Y436977D01*
X822653Y437084D01*
X822639Y437192D01*
X822630Y437300D01*
X822624Y437408D01*
X822622Y437516D01*
X822622Y440550D01*
X822623Y440550D02*
X822625Y440689D01*
X822631Y440827D01*
X822641Y440965D01*
X822655Y441103D01*
X822672Y441241D01*
X822694Y441378D01*
X822720Y441514D01*
X822749Y441649D01*
X822782Y441784D01*
X822820Y441918D01*
X822861Y442050D01*
X822905Y442181D01*
X822954Y442311D01*
X823006Y442440D01*
X823062Y442566D01*
X823121Y442692D01*
X823184Y442815D01*
X823250Y442937D01*
X823320Y443057D01*
X823394Y443174D01*
X823470Y443290D01*
X823550Y443403D01*
X823633Y443514D01*
X823719Y443623D01*
X823809Y443729D01*
X823901Y443832D01*
X823996Y443933D01*
X824094Y444031D01*
X824195Y444126D01*
X824298Y444218D01*
X824404Y444308D01*
X824513Y444394D01*
X824624Y444477D01*
X824737Y444557D01*
X824853Y444633D01*
X824970Y444707D01*
X825090Y444777D01*
X825212Y444843D01*
X825335Y444906D01*
X825461Y444965D01*
X825587Y445021D01*
X825716Y445073D01*
X825846Y445122D01*
X825977Y445166D01*
X826109Y445207D01*
X826243Y445245D01*
X826378Y445278D01*
X826513Y445307D01*
X826649Y445333D01*
X826786Y445355D01*
X826924Y445372D01*
X827062Y445386D01*
X827200Y445396D01*
X827338Y445402D01*
X827477Y445404D01*
D19*
X719026Y425211D02*
X719026Y418099D01*
X719024Y418010D01*
X719018Y417922D01*
X719009Y417834D01*
X718995Y417746D01*
X718978Y417659D01*
X718957Y417573D01*
X718932Y417488D01*
X718903Y417404D01*
X718871Y417321D01*
X718836Y417240D01*
X718796Y417161D01*
X718754Y417083D01*
X718708Y417007D01*
X718659Y416933D01*
X718606Y416862D01*
X718551Y416793D01*
X718492Y416726D01*
X718431Y416662D01*
X718367Y416601D01*
X718300Y416542D01*
X718231Y416487D01*
X718160Y416434D01*
X718086Y416385D01*
X718010Y416339D01*
X717932Y416297D01*
X717853Y416257D01*
X717772Y416222D01*
X717689Y416190D01*
X717605Y416161D01*
X717520Y416136D01*
X717434Y416115D01*
X717347Y416098D01*
X717259Y416084D01*
X717171Y416075D01*
X717083Y416069D01*
X716994Y416067D01*
X715978Y416067D01*
X723353Y423179D02*
X725893Y425211D01*
X725893Y416067D01*
X723353Y416067D02*
X728433Y416067D01*
X732523Y420639D02*
X732526Y420848D01*
X732533Y421057D01*
X732546Y421266D01*
X732563Y421475D01*
X732586Y421683D01*
X732613Y421890D01*
X732646Y422097D01*
X732684Y422303D01*
X732726Y422508D01*
X732773Y422712D01*
X732826Y422914D01*
X732883Y423115D01*
X732945Y423315D01*
X733012Y423514D01*
X733083Y423710D01*
X733159Y423905D01*
X733240Y424098D01*
X733326Y424289D01*
X733416Y424478D01*
X733510Y424665D01*
X733609Y424849D01*
X733713Y425031D01*
X733821Y425210D01*
X733933Y425387D01*
X734049Y425561D01*
X734170Y425732D01*
X734294Y425900D01*
X734423Y426065D01*
X734555Y426227D01*
X732523Y420639D02*
X732526Y420430D01*
X732533Y420221D01*
X732546Y420012D01*
X732563Y419803D01*
X732586Y419595D01*
X732613Y419388D01*
X732646Y419181D01*
X732684Y418975D01*
X732726Y418770D01*
X732773Y418566D01*
X732826Y418364D01*
X732883Y418163D01*
X732945Y417963D01*
X733012Y417764D01*
X733083Y417568D01*
X733159Y417373D01*
X733240Y417180D01*
X733326Y416989D01*
X733416Y416800D01*
X733510Y416613D01*
X733609Y416429D01*
X733713Y416247D01*
X733821Y416068D01*
X733933Y415891D01*
X734049Y415717D01*
X734170Y415546D01*
X734294Y415378D01*
X734423Y415213D01*
X734555Y415051D01*
X738745Y416067D02*
X738745Y425211D01*
X741285Y425211D01*
X741385Y425209D01*
X741484Y425203D01*
X741584Y425193D01*
X741682Y425180D01*
X741781Y425162D01*
X741878Y425141D01*
X741974Y425116D01*
X742070Y425087D01*
X742164Y425054D01*
X742257Y425018D01*
X742348Y424978D01*
X742438Y424934D01*
X742526Y424887D01*
X742612Y424837D01*
X742696Y424783D01*
X742778Y424726D01*
X742857Y424666D01*
X742935Y424602D01*
X743009Y424536D01*
X743081Y424467D01*
X743150Y424395D01*
X743216Y424321D01*
X743280Y424243D01*
X743340Y424164D01*
X743397Y424082D01*
X743451Y423998D01*
X743501Y423912D01*
X743548Y423824D01*
X743592Y423734D01*
X743632Y423643D01*
X743668Y423550D01*
X743701Y423456D01*
X743730Y423360D01*
X743755Y423264D01*
X743776Y423167D01*
X743794Y423068D01*
X743807Y422970D01*
X743817Y422870D01*
X743823Y422771D01*
X743825Y422671D01*
X743823Y422571D01*
X743817Y422472D01*
X743807Y422372D01*
X743794Y422274D01*
X743776Y422175D01*
X743755Y422078D01*
X743730Y421982D01*
X743701Y421886D01*
X743668Y421792D01*
X743632Y421699D01*
X743592Y421608D01*
X743548Y421518D01*
X743501Y421430D01*
X743451Y421344D01*
X743397Y421260D01*
X743340Y421178D01*
X743280Y421099D01*
X743216Y421021D01*
X743150Y420947D01*
X743081Y420875D01*
X743009Y420806D01*
X742935Y420740D01*
X742857Y420676D01*
X742778Y420616D01*
X742696Y420559D01*
X742612Y420505D01*
X742526Y420455D01*
X742438Y420408D01*
X742348Y420364D01*
X742257Y420324D01*
X742164Y420288D01*
X742070Y420255D01*
X741974Y420226D01*
X741878Y420201D01*
X741781Y420180D01*
X741682Y420162D01*
X741584Y420149D01*
X741484Y420139D01*
X741385Y420133D01*
X741285Y420131D01*
X738745Y420131D01*
X747737Y418607D02*
X747737Y425211D01*
X747737Y418607D02*
X747739Y418507D01*
X747745Y418408D01*
X747755Y418308D01*
X747768Y418210D01*
X747786Y418111D01*
X747807Y418014D01*
X747832Y417918D01*
X747861Y417822D01*
X747894Y417728D01*
X747930Y417635D01*
X747970Y417544D01*
X748014Y417454D01*
X748061Y417366D01*
X748111Y417280D01*
X748165Y417196D01*
X748222Y417114D01*
X748282Y417035D01*
X748346Y416957D01*
X748412Y416883D01*
X748481Y416811D01*
X748553Y416742D01*
X748627Y416676D01*
X748705Y416612D01*
X748784Y416552D01*
X748866Y416495D01*
X748950Y416441D01*
X749036Y416391D01*
X749124Y416344D01*
X749214Y416300D01*
X749305Y416260D01*
X749398Y416224D01*
X749492Y416191D01*
X749588Y416162D01*
X749684Y416137D01*
X749781Y416116D01*
X749880Y416098D01*
X749978Y416085D01*
X750078Y416075D01*
X750177Y416069D01*
X750277Y416067D01*
X750377Y416069D01*
X750476Y416075D01*
X750576Y416085D01*
X750674Y416098D01*
X750773Y416116D01*
X750870Y416137D01*
X750966Y416162D01*
X751062Y416191D01*
X751156Y416224D01*
X751249Y416260D01*
X751340Y416300D01*
X751430Y416344D01*
X751518Y416391D01*
X751604Y416441D01*
X751688Y416495D01*
X751770Y416552D01*
X751849Y416612D01*
X751927Y416676D01*
X752001Y416742D01*
X752073Y416811D01*
X752142Y416883D01*
X752208Y416957D01*
X752272Y417035D01*
X752332Y417114D01*
X752389Y417196D01*
X752443Y417280D01*
X752493Y417366D01*
X752540Y417454D01*
X752584Y417544D01*
X752624Y417635D01*
X752660Y417728D01*
X752693Y417822D01*
X752722Y417918D01*
X752747Y418014D01*
X752768Y418111D01*
X752786Y418210D01*
X752799Y418308D01*
X752809Y418408D01*
X752815Y418507D01*
X752817Y418607D01*
X752817Y425211D01*
X757592Y425211D02*
X757592Y416067D01*
X760640Y420131D02*
X757592Y425211D01*
X760640Y420131D02*
X763688Y425211D01*
X763688Y416067D01*
X768616Y416067D02*
X768616Y425211D01*
X771156Y425211D01*
X771256Y425209D01*
X771355Y425203D01*
X771455Y425193D01*
X771553Y425180D01*
X771652Y425162D01*
X771749Y425141D01*
X771845Y425116D01*
X771941Y425087D01*
X772035Y425054D01*
X772128Y425018D01*
X772219Y424978D01*
X772309Y424934D01*
X772397Y424887D01*
X772483Y424837D01*
X772567Y424783D01*
X772649Y424726D01*
X772728Y424666D01*
X772806Y424602D01*
X772880Y424536D01*
X772952Y424467D01*
X773021Y424395D01*
X773087Y424321D01*
X773151Y424243D01*
X773211Y424164D01*
X773268Y424082D01*
X773322Y423998D01*
X773372Y423912D01*
X773419Y423824D01*
X773463Y423734D01*
X773503Y423643D01*
X773539Y423550D01*
X773572Y423456D01*
X773601Y423360D01*
X773626Y423264D01*
X773647Y423167D01*
X773665Y423068D01*
X773678Y422970D01*
X773688Y422870D01*
X773694Y422771D01*
X773696Y422671D01*
X773694Y422571D01*
X773688Y422472D01*
X773678Y422372D01*
X773665Y422274D01*
X773647Y422175D01*
X773626Y422078D01*
X773601Y421982D01*
X773572Y421886D01*
X773539Y421792D01*
X773503Y421699D01*
X773463Y421608D01*
X773419Y421518D01*
X773372Y421430D01*
X773322Y421344D01*
X773268Y421260D01*
X773211Y421178D01*
X773151Y421099D01*
X773087Y421021D01*
X773021Y420947D01*
X772952Y420875D01*
X772880Y420806D01*
X772806Y420740D01*
X772728Y420676D01*
X772649Y420616D01*
X772567Y420559D01*
X772483Y420505D01*
X772397Y420455D01*
X772309Y420408D01*
X772219Y420364D01*
X772128Y420324D01*
X772035Y420288D01*
X771941Y420255D01*
X771845Y420226D01*
X771749Y420201D01*
X771652Y420180D01*
X771553Y420162D01*
X771455Y420149D01*
X771355Y420139D01*
X771256Y420133D01*
X771156Y420131D01*
X768616Y420131D01*
X776972Y415051D02*
X777104Y415213D01*
X777233Y415378D01*
X777357Y415546D01*
X777478Y415717D01*
X777594Y415891D01*
X777706Y416068D01*
X777814Y416247D01*
X777918Y416429D01*
X778017Y416613D01*
X778111Y416800D01*
X778201Y416989D01*
X778287Y417180D01*
X778368Y417373D01*
X778444Y417568D01*
X778515Y417764D01*
X778582Y417963D01*
X778644Y418163D01*
X778701Y418364D01*
X778754Y418566D01*
X778801Y418770D01*
X778843Y418975D01*
X778881Y419181D01*
X778914Y419388D01*
X778941Y419595D01*
X778964Y419803D01*
X778981Y420012D01*
X778994Y420221D01*
X779001Y420430D01*
X779004Y420639D01*
X779001Y420848D01*
X778994Y421057D01*
X778981Y421266D01*
X778964Y421475D01*
X778941Y421683D01*
X778914Y421890D01*
X778881Y422097D01*
X778843Y422303D01*
X778801Y422508D01*
X778754Y422712D01*
X778701Y422914D01*
X778644Y423115D01*
X778582Y423315D01*
X778515Y423514D01*
X778444Y423710D01*
X778368Y423905D01*
X778287Y424098D01*
X778201Y424289D01*
X778111Y424478D01*
X778017Y424665D01*
X777918Y424849D01*
X777814Y425031D01*
X777706Y425210D01*
X777594Y425387D01*
X777478Y425561D01*
X777357Y425732D01*
X777233Y425900D01*
X777104Y426065D01*
X776972Y426227D01*
D10*
X815340Y142240D02*
X815340Y138430D01*
D18*
X828040Y138430D02*
X828040Y167640D01*
X828040Y138430D02*
X815340Y138430D01*
X812800Y138430D01*
X751840Y138430D01*
X675640Y138430D02*
X675640Y167640D01*
X675640Y138430D02*
X751840Y138430D01*
X828040Y167640D02*
X828040Y196850D01*
X753110Y196850D01*
X675640Y196850D02*
X675640Y167640D01*
X675640Y196850D02*
X753110Y196850D01*
X821690Y196850D02*
X825500Y196850D01*
X821690Y196850D02*
X821690Y190500D01*
X808990Y190500D01*
X808990Y196850D01*
X796290Y196850D01*
X796290Y190500D01*
X783590Y190500D01*
X783590Y196850D01*
X770890Y196850D01*
X770890Y190500D01*
X758190Y190500D01*
X758190Y196850D01*
X745490Y196850D01*
X745490Y190500D01*
X732790Y190500D01*
X732790Y196850D01*
X720090Y196850D01*
X720090Y190500D01*
X707390Y190500D01*
X707390Y196850D01*
X694690Y196850D01*
X694690Y190500D01*
X681990Y190500D01*
X681990Y196850D01*
X675640Y196850D01*
X815340Y148590D02*
X815340Y138430D01*
X815340Y148590D02*
X812800Y148590D01*
X690880Y148590D01*
X688340Y148590D01*
X688340Y138430D01*
X812800Y153670D02*
X815340Y148590D01*
X812800Y148590D02*
X812800Y138430D01*
X812800Y153670D02*
X690880Y153670D01*
X688340Y148590D01*
X690880Y148590D02*
X690880Y138430D01*
D12*
X665142Y167895D02*
X668176Y170322D01*
X668176Y159400D01*
X665142Y159400D02*
X671210Y159400D01*
X832782Y166230D02*
X836423Y166230D01*
X836521Y166228D01*
X836618Y166222D01*
X836716Y166212D01*
X836812Y166199D01*
X836908Y166181D01*
X837004Y166159D01*
X837098Y166134D01*
X837192Y166105D01*
X837284Y166072D01*
X837374Y166036D01*
X837463Y165996D01*
X837551Y165952D01*
X837637Y165905D01*
X837720Y165854D01*
X837802Y165800D01*
X837881Y165743D01*
X837958Y165683D01*
X838032Y165620D01*
X838104Y165553D01*
X838173Y165484D01*
X838240Y165412D01*
X838303Y165338D01*
X838363Y165261D01*
X838420Y165182D01*
X838474Y165100D01*
X838525Y165017D01*
X838572Y164931D01*
X838616Y164843D01*
X838656Y164754D01*
X838692Y164664D01*
X838725Y164572D01*
X838754Y164478D01*
X838779Y164384D01*
X838801Y164288D01*
X838819Y164192D01*
X838832Y164096D01*
X838842Y163998D01*
X838848Y163901D01*
X838850Y163803D01*
X838850Y163196D01*
X838848Y163088D01*
X838842Y162980D01*
X838833Y162872D01*
X838819Y162764D01*
X838802Y162657D01*
X838781Y162551D01*
X838756Y162446D01*
X838727Y162341D01*
X838695Y162238D01*
X838659Y162136D01*
X838619Y162035D01*
X838576Y161936D01*
X838529Y161838D01*
X838479Y161742D01*
X838425Y161648D01*
X838368Y161556D01*
X838308Y161466D01*
X838245Y161378D01*
X838178Y161292D01*
X838109Y161209D01*
X838037Y161129D01*
X837961Y161051D01*
X837883Y160975D01*
X837803Y160903D01*
X837720Y160834D01*
X837634Y160767D01*
X837546Y160704D01*
X837456Y160644D01*
X837364Y160587D01*
X837270Y160533D01*
X837174Y160483D01*
X837076Y160436D01*
X836977Y160393D01*
X836876Y160353D01*
X836774Y160317D01*
X836671Y160285D01*
X836566Y160256D01*
X836461Y160231D01*
X836355Y160210D01*
X836248Y160193D01*
X836140Y160179D01*
X836032Y160170D01*
X835924Y160164D01*
X835816Y160162D01*
X835708Y160164D01*
X835600Y160170D01*
X835492Y160179D01*
X835384Y160193D01*
X835277Y160210D01*
X835171Y160231D01*
X835066Y160256D01*
X834961Y160285D01*
X834858Y160317D01*
X834756Y160353D01*
X834655Y160393D01*
X834556Y160436D01*
X834458Y160483D01*
X834362Y160533D01*
X834268Y160587D01*
X834176Y160644D01*
X834086Y160704D01*
X833998Y160767D01*
X833912Y160834D01*
X833829Y160903D01*
X833749Y160975D01*
X833671Y161051D01*
X833595Y161129D01*
X833523Y161209D01*
X833454Y161292D01*
X833387Y161378D01*
X833324Y161466D01*
X833264Y161556D01*
X833207Y161648D01*
X833153Y161742D01*
X833103Y161838D01*
X833056Y161936D01*
X833013Y162035D01*
X832973Y162136D01*
X832937Y162238D01*
X832905Y162341D01*
X832876Y162446D01*
X832851Y162551D01*
X832830Y162657D01*
X832813Y162764D01*
X832799Y162872D01*
X832790Y162980D01*
X832784Y163088D01*
X832782Y163196D01*
X832782Y166230D01*
X832783Y166230D02*
X832785Y166369D01*
X832791Y166507D01*
X832801Y166645D01*
X832815Y166783D01*
X832832Y166921D01*
X832854Y167058D01*
X832880Y167194D01*
X832909Y167329D01*
X832942Y167464D01*
X832980Y167598D01*
X833021Y167730D01*
X833065Y167861D01*
X833114Y167991D01*
X833166Y168120D01*
X833222Y168246D01*
X833281Y168372D01*
X833344Y168495D01*
X833410Y168617D01*
X833480Y168737D01*
X833554Y168854D01*
X833630Y168970D01*
X833710Y169083D01*
X833793Y169194D01*
X833879Y169303D01*
X833969Y169409D01*
X834061Y169512D01*
X834156Y169613D01*
X834254Y169711D01*
X834355Y169806D01*
X834458Y169898D01*
X834564Y169988D01*
X834673Y170074D01*
X834784Y170157D01*
X834897Y170237D01*
X835013Y170313D01*
X835130Y170387D01*
X835250Y170457D01*
X835372Y170523D01*
X835495Y170586D01*
X835621Y170645D01*
X835747Y170701D01*
X835876Y170753D01*
X836006Y170802D01*
X836137Y170846D01*
X836269Y170887D01*
X836403Y170925D01*
X836538Y170958D01*
X836673Y170987D01*
X836809Y171013D01*
X836946Y171035D01*
X837084Y171052D01*
X837222Y171066D01*
X837360Y171076D01*
X837498Y171082D01*
X837637Y171084D01*
D19*
X720855Y150891D02*
X720855Y143779D01*
X720853Y143690D01*
X720847Y143602D01*
X720838Y143514D01*
X720824Y143426D01*
X720807Y143339D01*
X720786Y143253D01*
X720761Y143168D01*
X720732Y143084D01*
X720700Y143001D01*
X720665Y142920D01*
X720625Y142841D01*
X720583Y142763D01*
X720537Y142687D01*
X720488Y142613D01*
X720435Y142542D01*
X720380Y142473D01*
X720321Y142406D01*
X720260Y142342D01*
X720196Y142281D01*
X720129Y142222D01*
X720060Y142167D01*
X719989Y142114D01*
X719915Y142065D01*
X719839Y142019D01*
X719761Y141977D01*
X719682Y141937D01*
X719601Y141902D01*
X719518Y141870D01*
X719434Y141841D01*
X719349Y141816D01*
X719263Y141795D01*
X719176Y141778D01*
X719088Y141764D01*
X719000Y141755D01*
X718912Y141749D01*
X718823Y141747D01*
X717807Y141747D01*
X727976Y150891D02*
X728070Y150889D01*
X728165Y150883D01*
X728259Y150873D01*
X728352Y150860D01*
X728445Y150842D01*
X728537Y150821D01*
X728628Y150796D01*
X728718Y150767D01*
X728807Y150735D01*
X728894Y150698D01*
X728980Y150659D01*
X729064Y150615D01*
X729146Y150569D01*
X729226Y150519D01*
X729304Y150465D01*
X729380Y150409D01*
X729453Y150349D01*
X729524Y150287D01*
X729592Y150221D01*
X729658Y150153D01*
X729720Y150082D01*
X729780Y150009D01*
X729836Y149933D01*
X729890Y149855D01*
X729940Y149775D01*
X729986Y149693D01*
X730030Y149609D01*
X730069Y149523D01*
X730106Y149436D01*
X730138Y149347D01*
X730167Y149257D01*
X730192Y149166D01*
X730213Y149074D01*
X730231Y148981D01*
X730244Y148888D01*
X730254Y148794D01*
X730260Y148699D01*
X730262Y148605D01*
X727976Y150891D02*
X727870Y150889D01*
X727765Y150883D01*
X727660Y150874D01*
X727555Y150861D01*
X727451Y150844D01*
X727348Y150823D01*
X727245Y150799D01*
X727143Y150770D01*
X727043Y150739D01*
X726943Y150703D01*
X726845Y150665D01*
X726749Y150622D01*
X726653Y150576D01*
X726560Y150527D01*
X726469Y150475D01*
X726379Y150419D01*
X726291Y150360D01*
X726206Y150298D01*
X726123Y150233D01*
X726042Y150165D01*
X725964Y150094D01*
X725889Y150020D01*
X725816Y149944D01*
X725746Y149865D01*
X725679Y149784D01*
X725614Y149700D01*
X725553Y149614D01*
X725495Y149526D01*
X725440Y149436D01*
X725389Y149344D01*
X725340Y149250D01*
X725295Y149154D01*
X725254Y149057D01*
X725216Y148959D01*
X725182Y148859D01*
X729500Y146827D02*
X729567Y146894D01*
X729632Y146963D01*
X729694Y147035D01*
X729753Y147108D01*
X729809Y147185D01*
X729863Y147263D01*
X729913Y147343D01*
X729960Y147425D01*
X730004Y147509D01*
X730044Y147595D01*
X730082Y147682D01*
X730116Y147770D01*
X730146Y147860D01*
X730173Y147950D01*
X730197Y148042D01*
X730217Y148135D01*
X730233Y148228D01*
X730246Y148322D01*
X730255Y148416D01*
X730260Y148510D01*
X730262Y148605D01*
X729500Y146827D02*
X725182Y141747D01*
X730262Y141747D01*
X734352Y146319D02*
X734355Y146528D01*
X734362Y146737D01*
X734375Y146946D01*
X734392Y147155D01*
X734415Y147363D01*
X734442Y147570D01*
X734475Y147777D01*
X734513Y147983D01*
X734555Y148188D01*
X734602Y148392D01*
X734655Y148594D01*
X734712Y148795D01*
X734774Y148995D01*
X734841Y149194D01*
X734912Y149390D01*
X734988Y149585D01*
X735069Y149778D01*
X735155Y149969D01*
X735245Y150158D01*
X735339Y150345D01*
X735438Y150529D01*
X735542Y150711D01*
X735650Y150890D01*
X735762Y151067D01*
X735878Y151241D01*
X735999Y151412D01*
X736123Y151580D01*
X736252Y151745D01*
X736384Y151907D01*
X734352Y146319D02*
X734355Y146110D01*
X734362Y145901D01*
X734375Y145692D01*
X734392Y145483D01*
X734415Y145275D01*
X734442Y145068D01*
X734475Y144861D01*
X734513Y144655D01*
X734555Y144450D01*
X734602Y144246D01*
X734655Y144044D01*
X734712Y143843D01*
X734774Y143643D01*
X734841Y143444D01*
X734912Y143248D01*
X734988Y143053D01*
X735069Y142860D01*
X735155Y142669D01*
X735245Y142480D01*
X735339Y142293D01*
X735438Y142109D01*
X735542Y141927D01*
X735650Y141748D01*
X735762Y141571D01*
X735878Y141397D01*
X735999Y141226D01*
X736123Y141058D01*
X736252Y140893D01*
X736384Y140731D01*
X742860Y141747D02*
X742949Y141749D01*
X743037Y141755D01*
X743125Y141764D01*
X743213Y141778D01*
X743300Y141795D01*
X743386Y141816D01*
X743471Y141841D01*
X743555Y141870D01*
X743638Y141902D01*
X743719Y141937D01*
X743798Y141977D01*
X743876Y142019D01*
X743952Y142065D01*
X744026Y142114D01*
X744097Y142167D01*
X744166Y142222D01*
X744233Y142281D01*
X744297Y142342D01*
X744358Y142406D01*
X744417Y142473D01*
X744472Y142542D01*
X744525Y142613D01*
X744574Y142687D01*
X744620Y142763D01*
X744662Y142841D01*
X744702Y142920D01*
X744737Y143001D01*
X744769Y143084D01*
X744798Y143168D01*
X744823Y143253D01*
X744844Y143339D01*
X744861Y143426D01*
X744875Y143514D01*
X744884Y143602D01*
X744890Y143690D01*
X744892Y143779D01*
X742860Y141747D02*
X742730Y141749D01*
X742599Y141755D01*
X742469Y141765D01*
X742340Y141779D01*
X742211Y141796D01*
X742082Y141818D01*
X741954Y141844D01*
X741827Y141873D01*
X741701Y141906D01*
X741576Y141943D01*
X741452Y141984D01*
X741330Y142029D01*
X741209Y142077D01*
X741089Y142129D01*
X740971Y142185D01*
X740855Y142244D01*
X740741Y142307D01*
X740628Y142373D01*
X740518Y142442D01*
X740410Y142515D01*
X740304Y142591D01*
X740200Y142670D01*
X740099Y142752D01*
X740001Y142838D01*
X739905Y142926D01*
X739812Y143017D01*
X740066Y148859D02*
X740068Y148948D01*
X740074Y149036D01*
X740083Y149124D01*
X740097Y149212D01*
X740114Y149299D01*
X740135Y149385D01*
X740160Y149470D01*
X740189Y149554D01*
X740221Y149637D01*
X740256Y149718D01*
X740296Y149797D01*
X740338Y149875D01*
X740384Y149951D01*
X740433Y150025D01*
X740486Y150096D01*
X740541Y150165D01*
X740600Y150232D01*
X740661Y150296D01*
X740725Y150357D01*
X740792Y150416D01*
X740861Y150471D01*
X740932Y150524D01*
X741006Y150573D01*
X741082Y150619D01*
X741160Y150661D01*
X741239Y150701D01*
X741320Y150736D01*
X741403Y150768D01*
X741487Y150797D01*
X741572Y150822D01*
X741658Y150843D01*
X741745Y150860D01*
X741833Y150874D01*
X741921Y150883D01*
X742009Y150889D01*
X742098Y150891D01*
X742221Y150889D01*
X742343Y150883D01*
X742465Y150873D01*
X742587Y150859D01*
X742708Y150842D01*
X742829Y150820D01*
X742949Y150795D01*
X743068Y150765D01*
X743186Y150732D01*
X743303Y150695D01*
X743418Y150655D01*
X743533Y150611D01*
X743646Y150563D01*
X743757Y150511D01*
X743866Y150456D01*
X743974Y150397D01*
X744080Y150335D01*
X744183Y150270D01*
X744285Y150201D01*
X744384Y150129D01*
X741082Y147081D02*
X741006Y147128D01*
X740932Y147178D01*
X740861Y147231D01*
X740792Y147288D01*
X740725Y147347D01*
X740661Y147409D01*
X740599Y147474D01*
X740541Y147542D01*
X740486Y147612D01*
X740433Y147684D01*
X740384Y147758D01*
X740338Y147835D01*
X740295Y147913D01*
X740256Y147994D01*
X740220Y148076D01*
X740188Y148159D01*
X740160Y148243D01*
X740135Y148329D01*
X740114Y148416D01*
X740097Y148504D01*
X740083Y148592D01*
X740074Y148681D01*
X740068Y148770D01*
X740066Y148859D01*
X743876Y145557D02*
X743952Y145510D01*
X744026Y145460D01*
X744097Y145407D01*
X744166Y145350D01*
X744233Y145291D01*
X744297Y145229D01*
X744359Y145164D01*
X744417Y145096D01*
X744472Y145026D01*
X744525Y144954D01*
X744574Y144880D01*
X744620Y144803D01*
X744663Y144725D01*
X744702Y144644D01*
X744738Y144562D01*
X744770Y144479D01*
X744798Y144395D01*
X744823Y144309D01*
X744844Y144222D01*
X744861Y144134D01*
X744875Y144046D01*
X744884Y143957D01*
X744890Y143868D01*
X744892Y143779D01*
X743876Y145557D02*
X741082Y147081D01*
X748143Y150891D02*
X751191Y146573D01*
X754239Y150891D01*
X751191Y146573D02*
X751191Y141747D01*
X758166Y141747D02*
X758166Y150891D01*
X760706Y150891D01*
X760806Y150889D01*
X760905Y150883D01*
X761005Y150873D01*
X761103Y150860D01*
X761202Y150842D01*
X761299Y150821D01*
X761395Y150796D01*
X761491Y150767D01*
X761585Y150734D01*
X761678Y150698D01*
X761769Y150658D01*
X761859Y150614D01*
X761947Y150567D01*
X762033Y150517D01*
X762117Y150463D01*
X762199Y150406D01*
X762278Y150346D01*
X762356Y150282D01*
X762430Y150216D01*
X762502Y150147D01*
X762571Y150075D01*
X762637Y150001D01*
X762701Y149923D01*
X762761Y149844D01*
X762818Y149762D01*
X762872Y149678D01*
X762922Y149592D01*
X762969Y149504D01*
X763013Y149414D01*
X763053Y149323D01*
X763089Y149230D01*
X763122Y149136D01*
X763151Y149040D01*
X763176Y148944D01*
X763197Y148847D01*
X763215Y148748D01*
X763228Y148650D01*
X763238Y148550D01*
X763244Y148451D01*
X763246Y148351D01*
X763244Y148251D01*
X763238Y148152D01*
X763228Y148052D01*
X763215Y147954D01*
X763197Y147855D01*
X763176Y147758D01*
X763151Y147662D01*
X763122Y147566D01*
X763089Y147472D01*
X763053Y147379D01*
X763013Y147288D01*
X762969Y147198D01*
X762922Y147110D01*
X762872Y147024D01*
X762818Y146940D01*
X762761Y146858D01*
X762701Y146779D01*
X762637Y146701D01*
X762571Y146627D01*
X762502Y146555D01*
X762430Y146486D01*
X762356Y146420D01*
X762278Y146356D01*
X762199Y146296D01*
X762117Y146239D01*
X762033Y146185D01*
X761947Y146135D01*
X761859Y146088D01*
X761769Y146044D01*
X761678Y146004D01*
X761585Y145968D01*
X761491Y145935D01*
X761395Y145906D01*
X761299Y145881D01*
X761202Y145860D01*
X761103Y145842D01*
X761005Y145829D01*
X760905Y145819D01*
X760806Y145813D01*
X760706Y145811D01*
X758166Y145811D01*
X761214Y145811D02*
X763246Y141747D01*
X767955Y141747D02*
X767955Y150891D01*
X766939Y141747D02*
X768971Y141747D01*
X768971Y150891D02*
X766939Y150891D01*
X773035Y150891D02*
X773035Y141747D01*
X778115Y141747D02*
X773035Y150891D01*
X778115Y150891D02*
X778115Y141747D01*
X786345Y146827D02*
X787869Y146827D01*
X787869Y141747D01*
X784821Y141747D01*
X784732Y141749D01*
X784644Y141755D01*
X784556Y141764D01*
X784468Y141778D01*
X784381Y141795D01*
X784295Y141816D01*
X784210Y141841D01*
X784126Y141870D01*
X784043Y141902D01*
X783962Y141937D01*
X783883Y141977D01*
X783805Y142019D01*
X783729Y142065D01*
X783655Y142114D01*
X783584Y142167D01*
X783515Y142222D01*
X783448Y142281D01*
X783384Y142342D01*
X783323Y142406D01*
X783264Y142473D01*
X783209Y142542D01*
X783156Y142613D01*
X783107Y142687D01*
X783061Y142763D01*
X783019Y142841D01*
X782979Y142920D01*
X782944Y143001D01*
X782912Y143084D01*
X782883Y143168D01*
X782858Y143253D01*
X782837Y143339D01*
X782820Y143426D01*
X782806Y143514D01*
X782797Y143602D01*
X782791Y143690D01*
X782789Y143779D01*
X782789Y148859D01*
X782791Y148948D01*
X782797Y149036D01*
X782806Y149124D01*
X782820Y149212D01*
X782837Y149299D01*
X782858Y149385D01*
X782883Y149470D01*
X782912Y149554D01*
X782944Y149637D01*
X782979Y149718D01*
X783019Y149797D01*
X783061Y149875D01*
X783107Y149951D01*
X783156Y150025D01*
X783209Y150096D01*
X783264Y150165D01*
X783323Y150232D01*
X783384Y150296D01*
X783448Y150357D01*
X783515Y150416D01*
X783584Y150471D01*
X783655Y150524D01*
X783729Y150573D01*
X783805Y150619D01*
X783883Y150661D01*
X783962Y150701D01*
X784043Y150736D01*
X784126Y150768D01*
X784210Y150797D01*
X784295Y150822D01*
X784381Y150843D01*
X784468Y150860D01*
X784556Y150874D01*
X784644Y150883D01*
X784732Y150889D01*
X784821Y150891D01*
X787869Y150891D01*
X792563Y141747D02*
X796627Y141747D01*
X792563Y141747D02*
X792563Y150891D01*
X796627Y150891D01*
X795611Y146827D02*
X792563Y146827D01*
X801864Y146319D02*
X801861Y146110D01*
X801854Y145901D01*
X801841Y145692D01*
X801824Y145483D01*
X801801Y145275D01*
X801774Y145068D01*
X801741Y144861D01*
X801703Y144655D01*
X801661Y144450D01*
X801614Y144246D01*
X801561Y144044D01*
X801504Y143843D01*
X801442Y143643D01*
X801375Y143444D01*
X801304Y143248D01*
X801228Y143053D01*
X801147Y142860D01*
X801061Y142669D01*
X800971Y142480D01*
X800877Y142293D01*
X800778Y142109D01*
X800674Y141927D01*
X800566Y141748D01*
X800454Y141571D01*
X800338Y141397D01*
X800217Y141226D01*
X800093Y141058D01*
X799964Y140893D01*
X799832Y140731D01*
X801864Y146319D02*
X801861Y146528D01*
X801854Y146737D01*
X801841Y146946D01*
X801824Y147155D01*
X801801Y147363D01*
X801774Y147570D01*
X801741Y147777D01*
X801703Y147983D01*
X801661Y148188D01*
X801614Y148392D01*
X801561Y148594D01*
X801504Y148795D01*
X801442Y148995D01*
X801375Y149194D01*
X801304Y149390D01*
X801228Y149585D01*
X801147Y149778D01*
X801061Y149969D01*
X800971Y150158D01*
X800877Y150345D01*
X800778Y150529D01*
X800674Y150711D01*
X800566Y150890D01*
X800454Y151067D01*
X800338Y151241D01*
X800217Y151412D01*
X800093Y151580D01*
X799964Y151745D01*
X799832Y151907D01*
D13*
X552450Y196850D02*
X546100Y190500D01*
X533400Y190500D01*
X527050Y196850D01*
X527050Y209550D01*
X533400Y215900D01*
X546100Y215900D01*
X552450Y209550D01*
X584200Y190500D02*
X596900Y190500D01*
X584200Y190500D02*
X577850Y196850D01*
X577850Y209550D01*
X584200Y215900D01*
X577850Y196850D02*
X571500Y190500D01*
X558800Y190500D01*
X552450Y196850D01*
X552450Y209550D01*
X558800Y215900D01*
X571500Y215900D01*
X577850Y209550D01*
X603250Y209550D02*
X603250Y196850D01*
X596900Y190500D01*
X603250Y209550D02*
X596900Y215900D01*
X584200Y215900D01*
X520700Y190500D02*
X508000Y190500D01*
X501650Y196850D01*
X501650Y209550D01*
X508000Y215900D01*
X527050Y196850D02*
X520700Y190500D01*
X527050Y209550D02*
X520700Y215900D01*
X508000Y215900D01*
D10*
X590804Y181102D02*
X590804Y176022D01*
X590804Y181102D02*
X590806Y181213D01*
X590812Y181323D01*
X590821Y181434D01*
X590835Y181544D01*
X590852Y181653D01*
X590873Y181762D01*
X590898Y181870D01*
X590927Y181977D01*
X590959Y182083D01*
X590995Y182188D01*
X591035Y182291D01*
X591078Y182393D01*
X591125Y182494D01*
X591176Y182593D01*
X591229Y182690D01*
X591286Y182784D01*
X591347Y182877D01*
X591410Y182968D01*
X591477Y183057D01*
X591547Y183143D01*
X591620Y183226D01*
X591695Y183308D01*
X591773Y183386D01*
X591855Y183461D01*
X591938Y183534D01*
X592024Y183604D01*
X592113Y183671D01*
X592204Y183734D01*
X592297Y183795D01*
X592392Y183852D01*
X592488Y183905D01*
X592587Y183956D01*
X592688Y184003D01*
X592790Y184046D01*
X592893Y184086D01*
X592998Y184122D01*
X593104Y184154D01*
X593211Y184183D01*
X593319Y184208D01*
X593428Y184229D01*
X593537Y184246D01*
X593647Y184260D01*
X593758Y184269D01*
X593868Y184275D01*
X593979Y184277D01*
X594090Y184275D01*
X594200Y184269D01*
X594311Y184260D01*
X594421Y184246D01*
X594530Y184229D01*
X594639Y184208D01*
X594747Y184183D01*
X594854Y184154D01*
X594960Y184122D01*
X595065Y184086D01*
X595168Y184046D01*
X595270Y184003D01*
X595371Y183956D01*
X595470Y183905D01*
X595567Y183852D01*
X595661Y183795D01*
X595754Y183734D01*
X595845Y183671D01*
X595934Y183604D01*
X596020Y183534D01*
X596103Y183461D01*
X596185Y183386D01*
X596263Y183308D01*
X596338Y183226D01*
X596411Y183143D01*
X596481Y183057D01*
X596548Y182968D01*
X596611Y182877D01*
X596672Y182784D01*
X596729Y182690D01*
X596782Y182593D01*
X596833Y182494D01*
X596880Y182393D01*
X596923Y182291D01*
X596963Y182188D01*
X596999Y182083D01*
X597031Y181977D01*
X597060Y181870D01*
X597085Y181762D01*
X597106Y181653D01*
X597123Y181544D01*
X597137Y181434D01*
X597146Y181323D01*
X597152Y181213D01*
X597154Y181102D01*
X597154Y176022D01*
X597152Y175911D01*
X597146Y175801D01*
X597137Y175690D01*
X597123Y175580D01*
X597106Y175471D01*
X597085Y175362D01*
X597060Y175254D01*
X597031Y175147D01*
X596999Y175041D01*
X596963Y174936D01*
X596923Y174833D01*
X596880Y174731D01*
X596833Y174630D01*
X596782Y174531D01*
X596729Y174434D01*
X596672Y174340D01*
X596611Y174247D01*
X596548Y174156D01*
X596481Y174067D01*
X596411Y173981D01*
X596338Y173898D01*
X596263Y173816D01*
X596185Y173738D01*
X596103Y173663D01*
X596020Y173590D01*
X595934Y173520D01*
X595845Y173453D01*
X595754Y173390D01*
X595661Y173329D01*
X595567Y173272D01*
X595470Y173219D01*
X595371Y173168D01*
X595270Y173121D01*
X595168Y173078D01*
X595065Y173038D01*
X594960Y173002D01*
X594854Y172970D01*
X594747Y172941D01*
X594639Y172916D01*
X594530Y172895D01*
X594421Y172878D01*
X594311Y172864D01*
X594200Y172855D01*
X594090Y172849D01*
X593979Y172847D01*
X593868Y172849D01*
X593758Y172855D01*
X593647Y172864D01*
X593537Y172878D01*
X593428Y172895D01*
X593319Y172916D01*
X593211Y172941D01*
X593104Y172970D01*
X592998Y173002D01*
X592893Y173038D01*
X592790Y173078D01*
X592688Y173121D01*
X592587Y173168D01*
X592488Y173219D01*
X592392Y173272D01*
X592297Y173329D01*
X592204Y173390D01*
X592113Y173453D01*
X592024Y173520D01*
X591938Y173590D01*
X591855Y173663D01*
X591773Y173738D01*
X591695Y173816D01*
X591620Y173898D01*
X591547Y173981D01*
X591477Y174067D01*
X591410Y174156D01*
X591347Y174247D01*
X591286Y174340D01*
X591229Y174435D01*
X591176Y174531D01*
X591125Y174630D01*
X591078Y174731D01*
X591035Y174833D01*
X590995Y174936D01*
X590959Y175041D01*
X590927Y175147D01*
X590898Y175254D01*
X590873Y175362D01*
X590852Y175471D01*
X590835Y175580D01*
X590821Y175690D01*
X590812Y175801D01*
X590806Y175911D01*
X590804Y176022D01*
X602640Y172847D02*
X602640Y184277D01*
X602640Y172847D02*
X607720Y172847D01*
X612546Y172847D02*
X617626Y172847D01*
X612546Y172847D02*
X612546Y184277D01*
X617626Y184277D01*
X616356Y179197D02*
X612546Y179197D01*
X622427Y184277D02*
X622427Y172847D01*
X622427Y184277D02*
X625602Y184277D01*
X625713Y184275D01*
X625823Y184269D01*
X625934Y184260D01*
X626044Y184246D01*
X626153Y184229D01*
X626262Y184208D01*
X626370Y184183D01*
X626477Y184154D01*
X626583Y184122D01*
X626688Y184086D01*
X626791Y184046D01*
X626893Y184003D01*
X626994Y183956D01*
X627093Y183905D01*
X627190Y183852D01*
X627284Y183795D01*
X627377Y183734D01*
X627468Y183671D01*
X627557Y183604D01*
X627643Y183534D01*
X627726Y183461D01*
X627808Y183386D01*
X627886Y183308D01*
X627961Y183226D01*
X628034Y183143D01*
X628104Y183057D01*
X628171Y182968D01*
X628234Y182877D01*
X628295Y182784D01*
X628352Y182690D01*
X628405Y182593D01*
X628456Y182494D01*
X628503Y182393D01*
X628546Y182291D01*
X628586Y182188D01*
X628622Y182083D01*
X628654Y181977D01*
X628683Y181870D01*
X628708Y181762D01*
X628729Y181653D01*
X628746Y181544D01*
X628760Y181434D01*
X628769Y181323D01*
X628775Y181213D01*
X628777Y181102D01*
X628777Y176022D01*
X628775Y175911D01*
X628769Y175801D01*
X628760Y175690D01*
X628746Y175580D01*
X628729Y175471D01*
X628708Y175362D01*
X628683Y175254D01*
X628654Y175147D01*
X628622Y175041D01*
X628586Y174936D01*
X628546Y174833D01*
X628503Y174731D01*
X628456Y174630D01*
X628405Y174531D01*
X628352Y174434D01*
X628295Y174340D01*
X628234Y174247D01*
X628171Y174156D01*
X628104Y174067D01*
X628034Y173981D01*
X627961Y173898D01*
X627886Y173816D01*
X627808Y173738D01*
X627726Y173663D01*
X627643Y173590D01*
X627557Y173520D01*
X627468Y173453D01*
X627377Y173390D01*
X627284Y173329D01*
X627190Y173272D01*
X627093Y173219D01*
X626994Y173168D01*
X626893Y173121D01*
X626791Y173078D01*
X626688Y173038D01*
X626583Y173002D01*
X626477Y172970D01*
X626370Y172941D01*
X626262Y172916D01*
X626153Y172895D01*
X626044Y172878D01*
X625934Y172864D01*
X625823Y172855D01*
X625713Y172849D01*
X625602Y172847D01*
X622427Y172847D01*
D13*
X506730Y398780D02*
X494030Y398780D01*
X506730Y398780D02*
X513080Y392430D01*
X513080Y379730D01*
X506730Y373380D01*
X468630Y398780D02*
X462280Y392430D01*
X468630Y398780D02*
X481330Y398780D01*
X487680Y392430D01*
X487680Y379730D01*
X481330Y373380D01*
X468630Y373380D01*
X462280Y379730D01*
X487680Y392430D02*
X494030Y398780D01*
X487680Y379730D02*
X494030Y373380D01*
X506730Y373380D01*
X430530Y398780D02*
X417830Y398780D01*
X430530Y398780D02*
X436880Y392430D01*
X436880Y379730D01*
X430530Y373380D01*
X436880Y392430D02*
X443230Y398780D01*
X455930Y398780D01*
X462280Y392430D01*
X462280Y379730D01*
X455930Y373380D01*
X443230Y373380D01*
X436880Y379730D01*
X392430Y398780D02*
X386080Y392430D01*
X392430Y398780D02*
X405130Y398780D01*
X411480Y392430D01*
X411480Y379730D01*
X405130Y373380D01*
X392430Y373380D01*
X386080Y379730D01*
X411480Y392430D02*
X417830Y398780D01*
X411480Y379730D02*
X417830Y373380D01*
X430530Y373380D01*
X354330Y398780D02*
X341630Y398780D01*
X354330Y398780D02*
X360680Y392430D01*
X360680Y379730D01*
X354330Y373380D01*
X360680Y392430D02*
X367030Y398780D01*
X379730Y398780D01*
X386080Y392430D01*
X386080Y379730D01*
X379730Y373380D01*
X367030Y373380D01*
X360680Y379730D01*
X316230Y398780D02*
X309880Y392430D01*
X316230Y398780D02*
X328930Y398780D01*
X335280Y392430D01*
X335280Y379730D01*
X328930Y373380D01*
X316230Y373380D01*
X309880Y379730D01*
X335280Y392430D02*
X341630Y398780D01*
X335280Y379730D02*
X341630Y373380D01*
X354330Y373380D01*
X278130Y398780D02*
X265430Y398780D01*
X278130Y398780D02*
X284480Y392430D01*
X284480Y379730D01*
X278130Y373380D01*
X284480Y392430D02*
X290830Y398780D01*
X303530Y398780D01*
X309880Y392430D01*
X309880Y379730D01*
X303530Y373380D01*
X290830Y373380D01*
X284480Y379730D01*
X259080Y379730D02*
X259080Y392430D01*
X265430Y398780D01*
X259080Y379730D02*
X265430Y373380D01*
X278130Y373380D01*
X519430Y398780D02*
X532130Y398780D01*
X538480Y392430D01*
X538480Y379730D01*
X532130Y373380D01*
X513080Y392430D02*
X519430Y398780D01*
X513080Y379730D02*
X519430Y373380D01*
X532130Y373380D01*
D10*
X258953Y405003D02*
X258953Y416433D01*
X258953Y411353D02*
X265303Y411353D01*
X265303Y416433D02*
X265303Y405003D01*
X270764Y413893D02*
X273939Y416433D01*
X273939Y405003D01*
X270764Y405003D02*
X277114Y405003D01*
D13*
X767080Y392430D02*
X773430Y398780D01*
X786130Y398780D01*
X792480Y392430D01*
X792480Y379730D01*
X786130Y373380D01*
X773430Y373380D01*
X767080Y379730D01*
X735330Y398780D02*
X722630Y398780D01*
X735330Y398780D02*
X741680Y392430D01*
X741680Y379730D01*
X735330Y373380D01*
X741680Y392430D02*
X748030Y398780D01*
X760730Y398780D01*
X767080Y392430D01*
X767080Y379730D01*
X760730Y373380D01*
X748030Y373380D01*
X741680Y379730D01*
X716280Y379730D02*
X716280Y392430D01*
X722630Y398780D01*
X716280Y379730D02*
X722630Y373380D01*
X735330Y373380D01*
X798830Y398780D02*
X811530Y398780D01*
X817880Y392430D01*
X817880Y379730D01*
X811530Y373380D01*
X792480Y392430D02*
X798830Y398780D01*
X792480Y379730D02*
X798830Y373380D01*
X811530Y373380D01*
D10*
X817753Y405003D02*
X817753Y416433D01*
X817753Y411353D02*
X824103Y411353D01*
X824103Y416433D02*
X824103Y405003D01*
X833057Y416434D02*
X833161Y416432D01*
X833266Y416426D01*
X833370Y416417D01*
X833473Y416404D01*
X833576Y416386D01*
X833678Y416366D01*
X833780Y416341D01*
X833880Y416313D01*
X833980Y416281D01*
X834078Y416245D01*
X834175Y416206D01*
X834270Y416164D01*
X834364Y416118D01*
X834456Y416068D01*
X834546Y416016D01*
X834634Y415960D01*
X834720Y415900D01*
X834804Y415838D01*
X834885Y415773D01*
X834964Y415705D01*
X835041Y415633D01*
X835114Y415560D01*
X835186Y415483D01*
X835254Y415404D01*
X835319Y415323D01*
X835381Y415239D01*
X835441Y415153D01*
X835497Y415065D01*
X835549Y414975D01*
X835599Y414883D01*
X835645Y414789D01*
X835687Y414694D01*
X835726Y414597D01*
X835762Y414499D01*
X835794Y414399D01*
X835822Y414299D01*
X835847Y414197D01*
X835867Y414095D01*
X835885Y413992D01*
X835898Y413889D01*
X835907Y413785D01*
X835913Y413680D01*
X835915Y413576D01*
X833057Y416433D02*
X832939Y416431D01*
X832820Y416425D01*
X832702Y416416D01*
X832585Y416403D01*
X832468Y416385D01*
X832351Y416365D01*
X832235Y416340D01*
X832120Y416312D01*
X832007Y416279D01*
X831894Y416244D01*
X831782Y416204D01*
X831672Y416162D01*
X831563Y416115D01*
X831455Y416065D01*
X831350Y416012D01*
X831246Y415955D01*
X831144Y415895D01*
X831044Y415832D01*
X830946Y415765D01*
X830850Y415696D01*
X830757Y415623D01*
X830666Y415547D01*
X830577Y415469D01*
X830491Y415387D01*
X830408Y415303D01*
X830327Y415217D01*
X830250Y415127D01*
X830175Y415036D01*
X830103Y414942D01*
X830034Y414845D01*
X829969Y414747D01*
X829906Y414646D01*
X829847Y414543D01*
X829791Y414439D01*
X829739Y414333D01*
X829690Y414225D01*
X829645Y414116D01*
X829603Y414005D01*
X829565Y413893D01*
X834962Y411354D02*
X835038Y411429D01*
X835113Y411508D01*
X835184Y411589D01*
X835253Y411673D01*
X835318Y411759D01*
X835380Y411847D01*
X835440Y411937D01*
X835496Y412029D01*
X835549Y412124D01*
X835598Y412220D01*
X835644Y412318D01*
X835687Y412417D01*
X835726Y412518D01*
X835761Y412620D01*
X835793Y412723D01*
X835821Y412827D01*
X835846Y412932D01*
X835867Y413039D01*
X835884Y413145D01*
X835897Y413252D01*
X835906Y413360D01*
X835912Y413468D01*
X835914Y413576D01*
X834962Y411353D02*
X829564Y405003D01*
X835914Y405003D01*
D13*
X773430Y246380D02*
X767080Y240030D01*
X773430Y246380D02*
X786130Y246380D01*
X792480Y240030D01*
X792480Y227330D01*
X786130Y220980D01*
X773430Y220980D01*
X767080Y227330D01*
X735330Y246380D02*
X722630Y246380D01*
X735330Y246380D02*
X741680Y240030D01*
X741680Y227330D01*
X735330Y220980D01*
X741680Y240030D02*
X748030Y246380D01*
X760730Y246380D01*
X767080Y240030D01*
X767080Y227330D01*
X760730Y220980D01*
X748030Y220980D01*
X741680Y227330D01*
X716280Y227330D02*
X716280Y240030D01*
X722630Y246380D01*
X716280Y227330D02*
X722630Y220980D01*
X735330Y220980D01*
X798830Y246380D02*
X811530Y246380D01*
X817880Y240030D01*
X817880Y227330D01*
X811530Y220980D01*
X792480Y240030D02*
X798830Y246380D01*
X792480Y227330D02*
X798830Y220980D01*
X811530Y220980D01*
D10*
X817753Y213233D02*
X817753Y201803D01*
X817753Y208153D02*
X824103Y208153D01*
X824103Y213233D02*
X824103Y201803D01*
X829564Y201803D02*
X833374Y201803D01*
X833474Y201805D01*
X833573Y201811D01*
X833673Y201821D01*
X833771Y201834D01*
X833870Y201852D01*
X833967Y201873D01*
X834063Y201898D01*
X834159Y201927D01*
X834253Y201960D01*
X834346Y201996D01*
X834437Y202036D01*
X834527Y202080D01*
X834615Y202127D01*
X834701Y202177D01*
X834785Y202231D01*
X834867Y202288D01*
X834946Y202348D01*
X835024Y202412D01*
X835098Y202478D01*
X835170Y202547D01*
X835239Y202619D01*
X835305Y202693D01*
X835369Y202771D01*
X835429Y202850D01*
X835486Y202932D01*
X835540Y203016D01*
X835590Y203102D01*
X835637Y203190D01*
X835681Y203280D01*
X835721Y203371D01*
X835757Y203464D01*
X835790Y203558D01*
X835819Y203654D01*
X835844Y203750D01*
X835865Y203847D01*
X835883Y203946D01*
X835896Y204044D01*
X835906Y204144D01*
X835912Y204243D01*
X835914Y204343D01*
X835914Y205613D01*
X835912Y205713D01*
X835906Y205812D01*
X835896Y205912D01*
X835883Y206010D01*
X835865Y206109D01*
X835844Y206206D01*
X835819Y206302D01*
X835790Y206398D01*
X835757Y206492D01*
X835721Y206585D01*
X835681Y206676D01*
X835637Y206766D01*
X835590Y206854D01*
X835540Y206940D01*
X835486Y207024D01*
X835429Y207106D01*
X835369Y207185D01*
X835305Y207263D01*
X835239Y207337D01*
X835170Y207409D01*
X835098Y207478D01*
X835024Y207544D01*
X834946Y207608D01*
X834867Y207668D01*
X834785Y207725D01*
X834701Y207779D01*
X834615Y207829D01*
X834527Y207876D01*
X834437Y207920D01*
X834346Y207960D01*
X834253Y207996D01*
X834159Y208029D01*
X834063Y208058D01*
X833967Y208083D01*
X833870Y208104D01*
X833771Y208122D01*
X833673Y208135D01*
X833573Y208145D01*
X833474Y208151D01*
X833374Y208153D01*
X829564Y208153D01*
X829564Y213233D01*
X835914Y213233D01*
X650240Y412750D02*
X650240Y416560D01*
D18*
X662940Y412750D02*
X662940Y441960D01*
X662940Y412750D02*
X650240Y412750D01*
D10*
X647700Y412750D01*
D18*
X650240Y412750D02*
X637540Y412750D01*
X586740Y412750D02*
X586740Y441960D01*
X586740Y412750D02*
X637540Y412750D01*
X662940Y441960D02*
X662940Y471170D01*
D10*
X637540Y471170D01*
D18*
X586740Y471170D02*
X586740Y441960D01*
X593090Y471170D02*
X605790Y471170D01*
X618490Y471170D02*
X631190Y471170D01*
D10*
X637540Y471170D01*
D18*
X656590Y471170D02*
X660400Y471170D01*
X656590Y471170D02*
X656590Y464820D01*
X643890Y464820D01*
X643890Y471170D01*
X656590Y471170D01*
X643890Y471170D02*
X631190Y471170D01*
X631190Y464820D01*
X618490Y464820D01*
X618490Y471170D01*
X605790Y471170D01*
X605790Y464820D01*
X593090Y464820D01*
X593090Y471170D01*
X586740Y471170D01*
X650240Y422910D02*
X650240Y412750D01*
X650240Y422910D02*
X647700Y422910D01*
X601980Y422910D01*
X599440Y422910D01*
X599440Y412750D01*
X647700Y427990D02*
X650240Y422910D01*
X647700Y422910D02*
X647700Y412750D01*
X647700Y427990D02*
X601980Y427990D01*
X599440Y422910D01*
X601980Y422910D02*
X601980Y412750D01*
D12*
X573702Y446025D02*
X576736Y448452D01*
X576736Y437530D01*
X573702Y437530D02*
X579770Y437530D01*
X667682Y437022D02*
X670716Y437022D01*
X670824Y437024D01*
X670932Y437030D01*
X671040Y437039D01*
X671148Y437053D01*
X671255Y437070D01*
X671361Y437091D01*
X671466Y437116D01*
X671571Y437145D01*
X671674Y437177D01*
X671776Y437213D01*
X671877Y437253D01*
X671976Y437296D01*
X672074Y437343D01*
X672170Y437393D01*
X672264Y437447D01*
X672356Y437504D01*
X672446Y437564D01*
X672534Y437627D01*
X672620Y437694D01*
X672703Y437763D01*
X672783Y437835D01*
X672861Y437911D01*
X672937Y437989D01*
X673009Y438069D01*
X673078Y438152D01*
X673145Y438238D01*
X673208Y438326D01*
X673268Y438416D01*
X673325Y438508D01*
X673379Y438602D01*
X673429Y438698D01*
X673476Y438796D01*
X673519Y438895D01*
X673559Y438996D01*
X673595Y439098D01*
X673627Y439201D01*
X673656Y439306D01*
X673681Y439411D01*
X673702Y439517D01*
X673719Y439624D01*
X673733Y439732D01*
X673742Y439840D01*
X673748Y439948D01*
X673750Y440056D01*
X673748Y440164D01*
X673742Y440272D01*
X673733Y440380D01*
X673719Y440488D01*
X673702Y440595D01*
X673681Y440701D01*
X673656Y440806D01*
X673627Y440911D01*
X673595Y441014D01*
X673559Y441116D01*
X673519Y441217D01*
X673476Y441316D01*
X673429Y441414D01*
X673379Y441510D01*
X673325Y441604D01*
X673268Y441696D01*
X673208Y441786D01*
X673145Y441874D01*
X673078Y441960D01*
X673009Y442043D01*
X672937Y442123D01*
X672861Y442201D01*
X672783Y442277D01*
X672703Y442349D01*
X672620Y442418D01*
X672534Y442485D01*
X672446Y442548D01*
X672356Y442608D01*
X672264Y442665D01*
X672170Y442719D01*
X672074Y442769D01*
X671976Y442816D01*
X671877Y442859D01*
X671776Y442899D01*
X671674Y442935D01*
X671571Y442967D01*
X671466Y442996D01*
X671361Y443021D01*
X671255Y443042D01*
X671148Y443059D01*
X671040Y443073D01*
X670932Y443082D01*
X670824Y443088D01*
X670716Y443090D01*
X671323Y447944D02*
X667682Y447944D01*
X671323Y447944D02*
X671421Y447942D01*
X671518Y447936D01*
X671616Y447926D01*
X671712Y447913D01*
X671808Y447895D01*
X671904Y447873D01*
X671998Y447848D01*
X672092Y447819D01*
X672184Y447786D01*
X672274Y447750D01*
X672363Y447710D01*
X672451Y447666D01*
X672537Y447619D01*
X672620Y447568D01*
X672702Y447514D01*
X672781Y447457D01*
X672858Y447397D01*
X672932Y447334D01*
X673004Y447267D01*
X673073Y447198D01*
X673140Y447126D01*
X673203Y447052D01*
X673263Y446975D01*
X673320Y446896D01*
X673374Y446814D01*
X673425Y446731D01*
X673472Y446645D01*
X673516Y446557D01*
X673556Y446468D01*
X673592Y446378D01*
X673625Y446286D01*
X673654Y446192D01*
X673679Y446098D01*
X673701Y446002D01*
X673719Y445906D01*
X673732Y445810D01*
X673742Y445712D01*
X673748Y445615D01*
X673750Y445517D01*
X673748Y445419D01*
X673742Y445322D01*
X673732Y445224D01*
X673719Y445128D01*
X673701Y445032D01*
X673679Y444936D01*
X673654Y444842D01*
X673625Y444748D01*
X673592Y444656D01*
X673556Y444566D01*
X673516Y444477D01*
X673472Y444389D01*
X673425Y444304D01*
X673374Y444220D01*
X673320Y444138D01*
X673263Y444059D01*
X673203Y443982D01*
X673140Y443908D01*
X673073Y443836D01*
X673004Y443767D01*
X672932Y443700D01*
X672858Y443637D01*
X672781Y443577D01*
X672702Y443520D01*
X672620Y443466D01*
X672537Y443415D01*
X672451Y443368D01*
X672363Y443324D01*
X672274Y443284D01*
X672184Y443248D01*
X672092Y443215D01*
X671998Y443186D01*
X671904Y443161D01*
X671808Y443139D01*
X671712Y443121D01*
X671616Y443108D01*
X671518Y443098D01*
X671421Y443092D01*
X671323Y443090D01*
X668896Y443090D01*
D19*
X606674Y408701D02*
X606674Y399557D01*
X606674Y408701D02*
X609214Y408701D01*
X609314Y408699D01*
X609413Y408693D01*
X609513Y408683D01*
X609611Y408670D01*
X609710Y408652D01*
X609807Y408631D01*
X609903Y408606D01*
X609999Y408577D01*
X610093Y408544D01*
X610186Y408508D01*
X610277Y408468D01*
X610367Y408424D01*
X610455Y408377D01*
X610541Y408327D01*
X610625Y408273D01*
X610707Y408216D01*
X610786Y408156D01*
X610864Y408092D01*
X610938Y408026D01*
X611010Y407957D01*
X611079Y407885D01*
X611145Y407811D01*
X611209Y407733D01*
X611269Y407654D01*
X611326Y407572D01*
X611380Y407488D01*
X611430Y407402D01*
X611477Y407314D01*
X611521Y407224D01*
X611561Y407133D01*
X611597Y407040D01*
X611630Y406946D01*
X611659Y406850D01*
X611684Y406754D01*
X611705Y406657D01*
X611723Y406558D01*
X611736Y406460D01*
X611746Y406360D01*
X611752Y406261D01*
X611754Y406161D01*
X611752Y406061D01*
X611746Y405962D01*
X611736Y405862D01*
X611723Y405764D01*
X611705Y405665D01*
X611684Y405568D01*
X611659Y405472D01*
X611630Y405376D01*
X611597Y405282D01*
X611561Y405189D01*
X611521Y405098D01*
X611477Y405008D01*
X611430Y404920D01*
X611380Y404834D01*
X611326Y404750D01*
X611269Y404668D01*
X611209Y404589D01*
X611145Y404511D01*
X611079Y404437D01*
X611010Y404365D01*
X610938Y404296D01*
X610864Y404230D01*
X610786Y404166D01*
X610707Y404106D01*
X610625Y404049D01*
X610541Y403995D01*
X610455Y403945D01*
X610367Y403898D01*
X610277Y403854D01*
X610186Y403814D01*
X610093Y403778D01*
X609999Y403745D01*
X609903Y403716D01*
X609807Y403691D01*
X609710Y403670D01*
X609611Y403652D01*
X609513Y403639D01*
X609413Y403629D01*
X609314Y403623D01*
X609214Y403621D01*
X606674Y403621D01*
X615361Y402097D02*
X615361Y406161D01*
X615363Y406261D01*
X615369Y406360D01*
X615379Y406460D01*
X615392Y406558D01*
X615410Y406657D01*
X615431Y406754D01*
X615456Y406850D01*
X615485Y406946D01*
X615518Y407040D01*
X615554Y407133D01*
X615594Y407224D01*
X615638Y407314D01*
X615685Y407402D01*
X615735Y407488D01*
X615789Y407572D01*
X615846Y407654D01*
X615906Y407733D01*
X615970Y407811D01*
X616036Y407885D01*
X616105Y407957D01*
X616177Y408026D01*
X616251Y408092D01*
X616329Y408156D01*
X616408Y408216D01*
X616490Y408273D01*
X616574Y408327D01*
X616660Y408377D01*
X616748Y408424D01*
X616838Y408468D01*
X616929Y408508D01*
X617022Y408544D01*
X617116Y408577D01*
X617212Y408606D01*
X617308Y408631D01*
X617405Y408652D01*
X617504Y408670D01*
X617602Y408683D01*
X617702Y408693D01*
X617801Y408699D01*
X617901Y408701D01*
X618001Y408699D01*
X618100Y408693D01*
X618200Y408683D01*
X618298Y408670D01*
X618397Y408652D01*
X618494Y408631D01*
X618590Y408606D01*
X618686Y408577D01*
X618780Y408544D01*
X618873Y408508D01*
X618964Y408468D01*
X619054Y408424D01*
X619142Y408377D01*
X619228Y408327D01*
X619312Y408273D01*
X619394Y408216D01*
X619473Y408156D01*
X619551Y408092D01*
X619625Y408026D01*
X619697Y407957D01*
X619766Y407885D01*
X619832Y407811D01*
X619896Y407733D01*
X619956Y407654D01*
X620013Y407572D01*
X620067Y407488D01*
X620117Y407402D01*
X620164Y407314D01*
X620208Y407224D01*
X620248Y407133D01*
X620284Y407040D01*
X620317Y406946D01*
X620346Y406850D01*
X620371Y406754D01*
X620392Y406657D01*
X620410Y406558D01*
X620423Y406460D01*
X620433Y406360D01*
X620439Y406261D01*
X620441Y406161D01*
X620441Y402097D01*
X620439Y401997D01*
X620433Y401898D01*
X620423Y401798D01*
X620410Y401700D01*
X620392Y401601D01*
X620371Y401504D01*
X620346Y401408D01*
X620317Y401312D01*
X620284Y401218D01*
X620248Y401125D01*
X620208Y401034D01*
X620164Y400944D01*
X620117Y400856D01*
X620067Y400770D01*
X620013Y400686D01*
X619956Y400604D01*
X619896Y400525D01*
X619832Y400447D01*
X619766Y400373D01*
X619697Y400301D01*
X619625Y400232D01*
X619551Y400166D01*
X619473Y400102D01*
X619394Y400042D01*
X619312Y399985D01*
X619228Y399931D01*
X619142Y399881D01*
X619054Y399834D01*
X618964Y399790D01*
X618873Y399750D01*
X618780Y399714D01*
X618686Y399681D01*
X618590Y399652D01*
X618494Y399627D01*
X618397Y399606D01*
X618298Y399588D01*
X618200Y399575D01*
X618100Y399565D01*
X618001Y399559D01*
X617901Y399557D01*
X617801Y399559D01*
X617702Y399565D01*
X617602Y399575D01*
X617504Y399588D01*
X617405Y399606D01*
X617308Y399627D01*
X617212Y399652D01*
X617116Y399681D01*
X617022Y399714D01*
X616929Y399750D01*
X616838Y399790D01*
X616748Y399834D01*
X616660Y399881D01*
X616574Y399931D01*
X616490Y399985D01*
X616408Y400042D01*
X616329Y400102D01*
X616251Y400166D01*
X616177Y400232D01*
X616105Y400301D01*
X616036Y400373D01*
X615970Y400447D01*
X615906Y400525D01*
X615846Y400604D01*
X615789Y400686D01*
X615735Y400770D01*
X615685Y400856D01*
X615638Y400944D01*
X615594Y401034D01*
X615554Y401125D01*
X615518Y401218D01*
X615485Y401312D01*
X615456Y401408D01*
X615431Y401504D01*
X615410Y401601D01*
X615392Y401700D01*
X615379Y401798D01*
X615369Y401898D01*
X615363Y401997D01*
X615361Y402097D01*
X624200Y408701D02*
X626232Y399557D01*
X628264Y405653D01*
X630296Y399557D01*
X632328Y408701D01*
X636412Y399557D02*
X640476Y399557D01*
X636412Y399557D02*
X636412Y408701D01*
X640476Y408701D01*
X639460Y404637D02*
X636412Y404637D01*
X644383Y408701D02*
X644383Y399557D01*
X644383Y408701D02*
X646923Y408701D01*
X647023Y408699D01*
X647122Y408693D01*
X647222Y408683D01*
X647320Y408670D01*
X647419Y408652D01*
X647516Y408631D01*
X647612Y408606D01*
X647708Y408577D01*
X647802Y408544D01*
X647895Y408508D01*
X647986Y408468D01*
X648076Y408424D01*
X648164Y408377D01*
X648250Y408327D01*
X648334Y408273D01*
X648416Y408216D01*
X648495Y408156D01*
X648573Y408092D01*
X648647Y408026D01*
X648719Y407957D01*
X648788Y407885D01*
X648854Y407811D01*
X648918Y407733D01*
X648978Y407654D01*
X649035Y407572D01*
X649089Y407488D01*
X649139Y407402D01*
X649186Y407314D01*
X649230Y407224D01*
X649270Y407133D01*
X649306Y407040D01*
X649339Y406946D01*
X649368Y406850D01*
X649393Y406754D01*
X649414Y406657D01*
X649432Y406558D01*
X649445Y406460D01*
X649455Y406360D01*
X649461Y406261D01*
X649463Y406161D01*
X649461Y406061D01*
X649455Y405962D01*
X649445Y405862D01*
X649432Y405764D01*
X649414Y405665D01*
X649393Y405568D01*
X649368Y405472D01*
X649339Y405376D01*
X649306Y405282D01*
X649270Y405189D01*
X649230Y405098D01*
X649186Y405008D01*
X649139Y404920D01*
X649089Y404834D01*
X649035Y404750D01*
X648978Y404668D01*
X648918Y404589D01*
X648854Y404511D01*
X648788Y404437D01*
X648719Y404365D01*
X648647Y404296D01*
X648573Y404230D01*
X648495Y404166D01*
X648416Y404106D01*
X648334Y404049D01*
X648250Y403995D01*
X648164Y403945D01*
X648076Y403898D01*
X647986Y403854D01*
X647895Y403814D01*
X647802Y403778D01*
X647708Y403745D01*
X647612Y403716D01*
X647516Y403691D01*
X647419Y403670D01*
X647320Y403652D01*
X647222Y403639D01*
X647122Y403629D01*
X647023Y403623D01*
X646923Y403621D01*
X644383Y403621D01*
X647431Y403621D02*
X649463Y399557D01*
D11*
X683260Y476250D02*
X707390Y476250D01*
X707390Y577850D02*
X683260Y577850D01*
X683260Y476250D01*
X673100Y476250D01*
X673100Y577850D01*
X683260Y577850D01*
X716280Y485140D02*
X716283Y484927D01*
X716280Y484714D01*
X716272Y484501D01*
X716259Y484288D01*
X716241Y484076D01*
X716218Y483865D01*
X716189Y483653D01*
X716155Y483443D01*
X716116Y483234D01*
X716072Y483025D01*
X716023Y482818D01*
X715968Y482612D01*
X715909Y482407D01*
X715845Y482204D01*
X715775Y482003D01*
X715701Y481803D01*
X715622Y481605D01*
X715538Y481410D01*
X715449Y481216D01*
X715356Y481025D01*
X715258Y480835D01*
X715155Y480649D01*
X715048Y480465D01*
X714936Y480283D01*
X714820Y480105D01*
X714699Y479929D01*
X714575Y479757D01*
X714446Y479587D01*
X714312Y479421D01*
X714175Y479258D01*
X714034Y479098D01*
X713889Y478942D01*
X713740Y478790D01*
X713588Y478641D01*
X713432Y478496D01*
X713272Y478355D01*
X713109Y478218D01*
X712943Y478084D01*
X712773Y477955D01*
X712601Y477831D01*
X712425Y477710D01*
X712247Y477594D01*
X712065Y477482D01*
X711881Y477375D01*
X711695Y477272D01*
X711505Y477174D01*
X711314Y477081D01*
X711120Y476992D01*
X710925Y476908D01*
X710727Y476829D01*
X710527Y476755D01*
X710326Y476685D01*
X710123Y476621D01*
X709918Y476562D01*
X709712Y476507D01*
X709505Y476458D01*
X709296Y476414D01*
X709087Y476375D01*
X708877Y476341D01*
X708665Y476312D01*
X708454Y476289D01*
X708242Y476271D01*
X708029Y476258D01*
X707816Y476250D01*
X707603Y476247D01*
X707390Y476250D01*
X716280Y568960D02*
X716283Y569173D01*
X716280Y569386D01*
X716272Y569599D01*
X716259Y569812D01*
X716241Y570024D01*
X716218Y570235D01*
X716189Y570447D01*
X716155Y570657D01*
X716116Y570866D01*
X716072Y571075D01*
X716023Y571282D01*
X715968Y571488D01*
X715909Y571693D01*
X715845Y571896D01*
X715775Y572097D01*
X715701Y572297D01*
X715622Y572495D01*
X715538Y572690D01*
X715449Y572884D01*
X715356Y573075D01*
X715258Y573265D01*
X715155Y573451D01*
X715048Y573635D01*
X714936Y573817D01*
X714820Y573995D01*
X714699Y574171D01*
X714575Y574343D01*
X714446Y574513D01*
X714312Y574679D01*
X714175Y574842D01*
X714034Y575002D01*
X713889Y575158D01*
X713740Y575310D01*
X713588Y575459D01*
X713432Y575604D01*
X713272Y575745D01*
X713109Y575882D01*
X712943Y576016D01*
X712773Y576145D01*
X712601Y576269D01*
X712425Y576390D01*
X712247Y576506D01*
X712065Y576618D01*
X711881Y576725D01*
X711695Y576828D01*
X711505Y576926D01*
X711314Y577019D01*
X711120Y577108D01*
X710925Y577192D01*
X710727Y577271D01*
X710527Y577345D01*
X710326Y577415D01*
X710123Y577479D01*
X709918Y577538D01*
X709712Y577593D01*
X709505Y577642D01*
X709296Y577686D01*
X709087Y577725D01*
X708877Y577759D01*
X708665Y577788D01*
X708454Y577811D01*
X708242Y577829D01*
X708029Y577842D01*
X707816Y577850D01*
X707603Y577853D01*
X707390Y577850D01*
X716280Y488950D02*
X716280Y485140D01*
X716280Y565150D02*
X716280Y568960D01*
D20*
X678180Y527050D03*
D13*
X730547Y520644D02*
X730547Y515676D01*
X730547Y520644D02*
X730549Y520755D01*
X730555Y520865D01*
X730565Y520976D01*
X730579Y521086D01*
X730596Y521195D01*
X730618Y521304D01*
X730643Y521412D01*
X730673Y521518D01*
X730706Y521624D01*
X730743Y521729D01*
X730783Y521832D01*
X730828Y521933D01*
X730875Y522033D01*
X730927Y522132D01*
X730982Y522228D01*
X731040Y522322D01*
X731101Y522414D01*
X731166Y522504D01*
X731234Y522592D01*
X731305Y522677D01*
X731379Y522759D01*
X731456Y522839D01*
X731536Y522916D01*
X731618Y522990D01*
X731703Y523061D01*
X731791Y523129D01*
X731881Y523194D01*
X731973Y523255D01*
X732067Y523313D01*
X732163Y523368D01*
X732262Y523420D01*
X732362Y523467D01*
X732463Y523512D01*
X732566Y523552D01*
X732671Y523589D01*
X732777Y523622D01*
X732883Y523652D01*
X732991Y523677D01*
X733100Y523699D01*
X733209Y523716D01*
X733319Y523730D01*
X733430Y523740D01*
X733540Y523746D01*
X733651Y523748D01*
X733762Y523746D01*
X733872Y523740D01*
X733983Y523730D01*
X734093Y523716D01*
X734202Y523699D01*
X734311Y523677D01*
X734419Y523652D01*
X734525Y523622D01*
X734631Y523589D01*
X734736Y523552D01*
X734839Y523512D01*
X734940Y523467D01*
X735040Y523420D01*
X735139Y523368D01*
X735235Y523313D01*
X735329Y523255D01*
X735421Y523194D01*
X735511Y523129D01*
X735599Y523061D01*
X735684Y522990D01*
X735766Y522916D01*
X735846Y522839D01*
X735923Y522759D01*
X735997Y522677D01*
X736068Y522592D01*
X736136Y522504D01*
X736201Y522414D01*
X736262Y522322D01*
X736320Y522228D01*
X736375Y522132D01*
X736427Y522033D01*
X736474Y521933D01*
X736519Y521832D01*
X736559Y521729D01*
X736596Y521624D01*
X736629Y521518D01*
X736659Y521412D01*
X736684Y521304D01*
X736706Y521195D01*
X736723Y521086D01*
X736737Y520976D01*
X736747Y520865D01*
X736753Y520755D01*
X736755Y520644D01*
X736756Y520644D02*
X736756Y515676D01*
X736755Y515676D02*
X736753Y515565D01*
X736747Y515455D01*
X736737Y515344D01*
X736723Y515234D01*
X736706Y515125D01*
X736684Y515016D01*
X736659Y514908D01*
X736629Y514802D01*
X736596Y514696D01*
X736559Y514591D01*
X736519Y514488D01*
X736474Y514387D01*
X736427Y514287D01*
X736375Y514188D01*
X736320Y514092D01*
X736262Y513998D01*
X736201Y513906D01*
X736136Y513816D01*
X736068Y513728D01*
X735997Y513643D01*
X735923Y513561D01*
X735846Y513481D01*
X735766Y513404D01*
X735684Y513330D01*
X735599Y513259D01*
X735511Y513191D01*
X735421Y513126D01*
X735329Y513065D01*
X735235Y513007D01*
X735139Y512952D01*
X735040Y512900D01*
X734940Y512853D01*
X734839Y512808D01*
X734736Y512768D01*
X734631Y512731D01*
X734525Y512698D01*
X734419Y512668D01*
X734311Y512643D01*
X734202Y512621D01*
X734093Y512604D01*
X733983Y512590D01*
X733872Y512580D01*
X733762Y512574D01*
X733651Y512572D01*
X733540Y512574D01*
X733430Y512580D01*
X733319Y512590D01*
X733209Y512604D01*
X733100Y512621D01*
X732991Y512643D01*
X732883Y512668D01*
X732777Y512698D01*
X732671Y512731D01*
X732566Y512768D01*
X732463Y512808D01*
X732362Y512853D01*
X732262Y512900D01*
X732163Y512952D01*
X732067Y513007D01*
X731973Y513065D01*
X731881Y513126D01*
X731791Y513191D01*
X731703Y513259D01*
X731618Y513330D01*
X731536Y513404D01*
X731456Y513481D01*
X731379Y513561D01*
X731305Y513643D01*
X731234Y513728D01*
X731166Y513816D01*
X731101Y513906D01*
X731040Y513998D01*
X730982Y514092D01*
X730927Y514188D01*
X730875Y514287D01*
X730828Y514387D01*
X730783Y514488D01*
X730743Y514591D01*
X730706Y514696D01*
X730673Y514802D01*
X730643Y514908D01*
X730618Y515016D01*
X730596Y515125D01*
X730579Y515234D01*
X730565Y515344D01*
X730555Y515455D01*
X730549Y515565D01*
X730547Y515676D01*
X735514Y515056D02*
X737998Y512572D01*
X741524Y521264D02*
X744629Y523748D01*
X744629Y512572D01*
X747733Y512572D02*
X741524Y512572D01*
D11*
X727710Y25400D02*
X703580Y25400D01*
X703580Y127000D02*
X727710Y127000D01*
X703580Y127000D02*
X703580Y25400D01*
X693420Y25400D01*
X693420Y127000D01*
X703580Y127000D01*
X736600Y34290D02*
X736603Y34077D01*
X736600Y33864D01*
X736592Y33651D01*
X736579Y33438D01*
X736561Y33226D01*
X736538Y33015D01*
X736509Y32803D01*
X736475Y32593D01*
X736436Y32384D01*
X736392Y32175D01*
X736343Y31968D01*
X736288Y31762D01*
X736229Y31557D01*
X736165Y31354D01*
X736095Y31153D01*
X736021Y30953D01*
X735942Y30755D01*
X735858Y30560D01*
X735769Y30366D01*
X735676Y30175D01*
X735578Y29985D01*
X735475Y29799D01*
X735368Y29615D01*
X735256Y29433D01*
X735140Y29255D01*
X735019Y29079D01*
X734895Y28907D01*
X734766Y28737D01*
X734632Y28571D01*
X734495Y28408D01*
X734354Y28248D01*
X734209Y28092D01*
X734060Y27940D01*
X733908Y27791D01*
X733752Y27646D01*
X733592Y27505D01*
X733429Y27368D01*
X733263Y27234D01*
X733093Y27105D01*
X732921Y26981D01*
X732745Y26860D01*
X732567Y26744D01*
X732385Y26632D01*
X732201Y26525D01*
X732015Y26422D01*
X731825Y26324D01*
X731634Y26231D01*
X731440Y26142D01*
X731245Y26058D01*
X731047Y25979D01*
X730847Y25905D01*
X730646Y25835D01*
X730443Y25771D01*
X730238Y25712D01*
X730032Y25657D01*
X729825Y25608D01*
X729616Y25564D01*
X729407Y25525D01*
X729197Y25491D01*
X728985Y25462D01*
X728774Y25439D01*
X728562Y25421D01*
X728349Y25408D01*
X728136Y25400D01*
X727923Y25397D01*
X727710Y25400D01*
X736600Y118110D02*
X736603Y118323D01*
X736600Y118536D01*
X736592Y118749D01*
X736579Y118962D01*
X736561Y119174D01*
X736538Y119385D01*
X736509Y119597D01*
X736475Y119807D01*
X736436Y120016D01*
X736392Y120225D01*
X736343Y120432D01*
X736288Y120638D01*
X736229Y120843D01*
X736165Y121046D01*
X736095Y121247D01*
X736021Y121447D01*
X735942Y121645D01*
X735858Y121840D01*
X735769Y122034D01*
X735676Y122225D01*
X735578Y122415D01*
X735475Y122601D01*
X735368Y122785D01*
X735256Y122967D01*
X735140Y123145D01*
X735019Y123321D01*
X734895Y123493D01*
X734766Y123663D01*
X734632Y123829D01*
X734495Y123992D01*
X734354Y124152D01*
X734209Y124308D01*
X734060Y124460D01*
X733908Y124609D01*
X733752Y124754D01*
X733592Y124895D01*
X733429Y125032D01*
X733263Y125166D01*
X733093Y125295D01*
X732921Y125419D01*
X732745Y125540D01*
X732567Y125656D01*
X732385Y125768D01*
X732201Y125875D01*
X732015Y125978D01*
X731825Y126076D01*
X731634Y126169D01*
X731440Y126258D01*
X731245Y126342D01*
X731047Y126421D01*
X730847Y126495D01*
X730646Y126565D01*
X730443Y126629D01*
X730238Y126688D01*
X730032Y126743D01*
X729825Y126792D01*
X729616Y126836D01*
X729407Y126875D01*
X729197Y126909D01*
X728985Y126938D01*
X728774Y126961D01*
X728562Y126979D01*
X728349Y126992D01*
X728136Y127000D01*
X727923Y127003D01*
X727710Y127000D01*
X736600Y38100D02*
X736600Y34290D01*
X736600Y114300D02*
X736600Y118110D01*
D20*
X698500Y76200D03*
D13*
X750867Y77526D02*
X750867Y82494D01*
X750869Y82605D01*
X750875Y82715D01*
X750885Y82826D01*
X750899Y82936D01*
X750916Y83045D01*
X750938Y83154D01*
X750963Y83262D01*
X750993Y83368D01*
X751026Y83474D01*
X751063Y83579D01*
X751103Y83682D01*
X751148Y83783D01*
X751195Y83883D01*
X751247Y83982D01*
X751302Y84078D01*
X751360Y84172D01*
X751421Y84264D01*
X751486Y84354D01*
X751554Y84442D01*
X751625Y84527D01*
X751699Y84609D01*
X751776Y84689D01*
X751856Y84766D01*
X751938Y84840D01*
X752023Y84911D01*
X752111Y84979D01*
X752201Y85044D01*
X752293Y85105D01*
X752387Y85163D01*
X752483Y85218D01*
X752582Y85270D01*
X752682Y85317D01*
X752783Y85362D01*
X752886Y85402D01*
X752991Y85439D01*
X753097Y85472D01*
X753203Y85502D01*
X753311Y85527D01*
X753420Y85549D01*
X753529Y85566D01*
X753639Y85580D01*
X753750Y85590D01*
X753860Y85596D01*
X753971Y85598D01*
X754082Y85596D01*
X754192Y85590D01*
X754303Y85580D01*
X754413Y85566D01*
X754522Y85549D01*
X754631Y85527D01*
X754739Y85502D01*
X754845Y85472D01*
X754951Y85439D01*
X755056Y85402D01*
X755159Y85362D01*
X755260Y85317D01*
X755360Y85270D01*
X755459Y85218D01*
X755555Y85163D01*
X755649Y85105D01*
X755741Y85044D01*
X755831Y84979D01*
X755919Y84911D01*
X756004Y84840D01*
X756086Y84766D01*
X756166Y84689D01*
X756243Y84609D01*
X756317Y84527D01*
X756388Y84442D01*
X756456Y84354D01*
X756521Y84264D01*
X756582Y84172D01*
X756640Y84078D01*
X756695Y83982D01*
X756747Y83883D01*
X756794Y83783D01*
X756839Y83682D01*
X756879Y83579D01*
X756916Y83474D01*
X756949Y83368D01*
X756979Y83262D01*
X757004Y83154D01*
X757026Y83045D01*
X757043Y82936D01*
X757057Y82826D01*
X757067Y82715D01*
X757073Y82605D01*
X757075Y82494D01*
X757076Y82494D02*
X757076Y77526D01*
X757075Y77526D02*
X757073Y77415D01*
X757067Y77305D01*
X757057Y77194D01*
X757043Y77084D01*
X757026Y76975D01*
X757004Y76866D01*
X756979Y76758D01*
X756949Y76652D01*
X756916Y76546D01*
X756879Y76441D01*
X756839Y76338D01*
X756794Y76237D01*
X756747Y76137D01*
X756695Y76038D01*
X756640Y75942D01*
X756582Y75848D01*
X756521Y75756D01*
X756456Y75666D01*
X756388Y75578D01*
X756317Y75493D01*
X756243Y75411D01*
X756166Y75331D01*
X756086Y75254D01*
X756004Y75180D01*
X755919Y75109D01*
X755831Y75041D01*
X755741Y74976D01*
X755649Y74915D01*
X755555Y74857D01*
X755459Y74802D01*
X755360Y74750D01*
X755260Y74703D01*
X755159Y74658D01*
X755056Y74618D01*
X754951Y74581D01*
X754845Y74548D01*
X754739Y74518D01*
X754631Y74493D01*
X754522Y74471D01*
X754413Y74454D01*
X754303Y74440D01*
X754192Y74430D01*
X754082Y74424D01*
X753971Y74422D01*
X753860Y74424D01*
X753750Y74430D01*
X753639Y74440D01*
X753529Y74454D01*
X753420Y74471D01*
X753311Y74493D01*
X753203Y74518D01*
X753097Y74548D01*
X752991Y74581D01*
X752886Y74618D01*
X752783Y74658D01*
X752682Y74703D01*
X752582Y74750D01*
X752483Y74802D01*
X752387Y74857D01*
X752293Y74915D01*
X752201Y74976D01*
X752111Y75041D01*
X752023Y75109D01*
X751938Y75180D01*
X751856Y75254D01*
X751776Y75331D01*
X751699Y75411D01*
X751625Y75493D01*
X751554Y75578D01*
X751486Y75666D01*
X751421Y75756D01*
X751360Y75848D01*
X751302Y75942D01*
X751247Y76038D01*
X751195Y76137D01*
X751148Y76237D01*
X751103Y76338D01*
X751063Y76441D01*
X751026Y76546D01*
X750993Y76652D01*
X750963Y76758D01*
X750938Y76866D01*
X750916Y76975D01*
X750899Y77084D01*
X750885Y77194D01*
X750875Y77305D01*
X750869Y77415D01*
X750867Y77526D01*
X755834Y76906D02*
X758318Y74422D01*
X768053Y82804D02*
X768051Y82908D01*
X768045Y83013D01*
X768035Y83117D01*
X768022Y83220D01*
X768004Y83323D01*
X767983Y83426D01*
X767958Y83527D01*
X767929Y83628D01*
X767896Y83727D01*
X767860Y83825D01*
X767820Y83921D01*
X767776Y84016D01*
X767729Y84110D01*
X767679Y84201D01*
X767625Y84290D01*
X767568Y84378D01*
X767507Y84463D01*
X767443Y84546D01*
X767377Y84626D01*
X767307Y84704D01*
X767235Y84780D01*
X767159Y84852D01*
X767081Y84922D01*
X767001Y84988D01*
X766918Y85052D01*
X766833Y85113D01*
X766745Y85170D01*
X766656Y85224D01*
X766565Y85274D01*
X766471Y85321D01*
X766376Y85365D01*
X766280Y85405D01*
X766182Y85441D01*
X766083Y85474D01*
X765982Y85503D01*
X765881Y85528D01*
X765778Y85549D01*
X765675Y85567D01*
X765572Y85580D01*
X765468Y85590D01*
X765363Y85596D01*
X765259Y85598D01*
X765259Y85599D02*
X765140Y85597D01*
X765022Y85591D01*
X764903Y85581D01*
X764785Y85568D01*
X764668Y85550D01*
X764551Y85528D01*
X764435Y85503D01*
X764320Y85474D01*
X764205Y85441D01*
X764092Y85404D01*
X763981Y85364D01*
X763870Y85320D01*
X763762Y85272D01*
X763655Y85221D01*
X763549Y85166D01*
X763446Y85107D01*
X763344Y85046D01*
X763245Y84981D01*
X763147Y84912D01*
X763053Y84841D01*
X762960Y84766D01*
X762870Y84689D01*
X762783Y84608D01*
X762698Y84525D01*
X762616Y84439D01*
X762537Y84350D01*
X762461Y84259D01*
X762388Y84165D01*
X762319Y84069D01*
X762252Y83970D01*
X762189Y83870D01*
X762129Y83767D01*
X762072Y83663D01*
X762020Y83556D01*
X761970Y83448D01*
X761924Y83339D01*
X761882Y83227D01*
X761844Y83115D01*
X767122Y80631D02*
X767197Y80705D01*
X767269Y80782D01*
X767339Y80861D01*
X767406Y80943D01*
X767470Y81027D01*
X767531Y81113D01*
X767589Y81201D01*
X767644Y81292D01*
X767696Y81384D01*
X767744Y81478D01*
X767789Y81573D01*
X767831Y81671D01*
X767869Y81769D01*
X767904Y81869D01*
X767935Y81970D01*
X767962Y82072D01*
X767986Y82175D01*
X768007Y82278D01*
X768023Y82383D01*
X768036Y82488D01*
X768046Y82593D01*
X768051Y82698D01*
X768053Y82804D01*
X767122Y80631D02*
X761844Y74422D01*
X768053Y74422D01*
X514350Y565150D02*
X514352Y565250D01*
X514358Y565349D01*
X514368Y565449D01*
X514381Y565547D01*
X514399Y565646D01*
X514420Y565743D01*
X514445Y565839D01*
X514474Y565935D01*
X514507Y566029D01*
X514543Y566122D01*
X514583Y566213D01*
X514627Y566303D01*
X514674Y566391D01*
X514724Y566477D01*
X514778Y566561D01*
X514835Y566643D01*
X514895Y566722D01*
X514959Y566800D01*
X515025Y566874D01*
X515094Y566946D01*
X515166Y567015D01*
X515240Y567081D01*
X515318Y567145D01*
X515397Y567205D01*
X515479Y567262D01*
X515563Y567316D01*
X515649Y567366D01*
X515737Y567413D01*
X515827Y567457D01*
X515918Y567497D01*
X516011Y567533D01*
X516105Y567566D01*
X516201Y567595D01*
X516297Y567620D01*
X516394Y567641D01*
X516493Y567659D01*
X516591Y567672D01*
X516691Y567682D01*
X516790Y567688D01*
X516890Y567690D01*
X514350Y547370D02*
X514352Y547270D01*
X514358Y547171D01*
X514368Y547071D01*
X514381Y546973D01*
X514399Y546874D01*
X514420Y546777D01*
X514445Y546681D01*
X514474Y546585D01*
X514507Y546491D01*
X514543Y546398D01*
X514583Y546307D01*
X514627Y546217D01*
X514674Y546129D01*
X514724Y546043D01*
X514778Y545959D01*
X514835Y545877D01*
X514895Y545798D01*
X514959Y545720D01*
X515025Y545646D01*
X515094Y545574D01*
X515166Y545505D01*
X515240Y545439D01*
X515318Y545375D01*
X515397Y545315D01*
X515479Y545258D01*
X515563Y545204D01*
X515649Y545154D01*
X515737Y545107D01*
X515827Y545063D01*
X515918Y545023D01*
X516011Y544987D01*
X516105Y544954D01*
X516201Y544925D01*
X516297Y544900D01*
X516394Y544879D01*
X516493Y544861D01*
X516591Y544848D01*
X516691Y544838D01*
X516790Y544832D01*
X516890Y544830D01*
X575310Y544830D02*
X575410Y544832D01*
X575509Y544838D01*
X575609Y544848D01*
X575707Y544861D01*
X575806Y544879D01*
X575903Y544900D01*
X575999Y544925D01*
X576095Y544954D01*
X576189Y544987D01*
X576282Y545023D01*
X576373Y545063D01*
X576463Y545107D01*
X576551Y545154D01*
X576637Y545204D01*
X576721Y545258D01*
X576803Y545315D01*
X576882Y545375D01*
X576960Y545439D01*
X577034Y545505D01*
X577106Y545574D01*
X577175Y545646D01*
X577241Y545720D01*
X577305Y545798D01*
X577365Y545877D01*
X577422Y545959D01*
X577476Y546043D01*
X577526Y546129D01*
X577573Y546217D01*
X577617Y546307D01*
X577657Y546398D01*
X577693Y546491D01*
X577726Y546585D01*
X577755Y546681D01*
X577780Y546777D01*
X577801Y546874D01*
X577819Y546973D01*
X577832Y547071D01*
X577842Y547171D01*
X577848Y547270D01*
X577850Y547370D01*
X577850Y565150D02*
X577848Y565250D01*
X577842Y565349D01*
X577832Y565449D01*
X577819Y565547D01*
X577801Y565646D01*
X577780Y565743D01*
X577755Y565839D01*
X577726Y565935D01*
X577693Y566029D01*
X577657Y566122D01*
X577617Y566213D01*
X577573Y566303D01*
X577526Y566391D01*
X577476Y566477D01*
X577422Y566561D01*
X577365Y566643D01*
X577305Y566722D01*
X577241Y566800D01*
X577175Y566874D01*
X577106Y566946D01*
X577034Y567015D01*
X576960Y567081D01*
X576882Y567145D01*
X576803Y567205D01*
X576721Y567262D01*
X576637Y567316D01*
X576551Y567366D01*
X576463Y567413D01*
X576373Y567457D01*
X576282Y567497D01*
X576189Y567533D01*
X576095Y567566D01*
X575999Y567595D01*
X575903Y567620D01*
X575806Y567641D01*
X575707Y567659D01*
X575609Y567672D01*
X575509Y567682D01*
X575410Y567688D01*
X575310Y567690D01*
X514350Y565150D02*
X514350Y547370D01*
X516890Y567690D02*
X520700Y567690D01*
X521970Y566420D01*
X520700Y544830D02*
X516890Y544830D01*
X520700Y544830D02*
X521970Y546100D01*
X570230Y566420D02*
X571500Y567690D01*
X570230Y566420D02*
X521970Y566420D01*
X570230Y546100D02*
X571500Y544830D01*
X570230Y546100D02*
X521970Y546100D01*
X571500Y567690D02*
X575310Y567690D01*
X575310Y544830D02*
X571500Y544830D01*
X577850Y547370D02*
X577850Y565150D01*
D21*
X582168Y556260D03*
X510032Y556260D03*
D10*
X579755Y572135D02*
X579755Y583565D01*
X582930Y583565D01*
X583041Y583563D01*
X583151Y583557D01*
X583262Y583548D01*
X583372Y583534D01*
X583481Y583517D01*
X583590Y583496D01*
X583698Y583471D01*
X583805Y583442D01*
X583911Y583410D01*
X584016Y583374D01*
X584119Y583334D01*
X584221Y583291D01*
X584322Y583244D01*
X584421Y583193D01*
X584518Y583140D01*
X584612Y583083D01*
X584705Y583022D01*
X584796Y582959D01*
X584885Y582892D01*
X584971Y582822D01*
X585054Y582749D01*
X585136Y582674D01*
X585214Y582596D01*
X585289Y582514D01*
X585362Y582431D01*
X585432Y582345D01*
X585499Y582256D01*
X585562Y582165D01*
X585623Y582072D01*
X585680Y581977D01*
X585733Y581881D01*
X585784Y581782D01*
X585831Y581681D01*
X585874Y581579D01*
X585914Y581476D01*
X585950Y581371D01*
X585982Y581265D01*
X586011Y581158D01*
X586036Y581050D01*
X586057Y580941D01*
X586074Y580832D01*
X586088Y580722D01*
X586097Y580611D01*
X586103Y580501D01*
X586105Y580390D01*
X586103Y580279D01*
X586097Y580169D01*
X586088Y580058D01*
X586074Y579948D01*
X586057Y579839D01*
X586036Y579730D01*
X586011Y579622D01*
X585982Y579515D01*
X585950Y579409D01*
X585914Y579304D01*
X585874Y579201D01*
X585831Y579099D01*
X585784Y578998D01*
X585733Y578899D01*
X585680Y578803D01*
X585623Y578708D01*
X585562Y578615D01*
X585499Y578524D01*
X585432Y578435D01*
X585362Y578349D01*
X585289Y578266D01*
X585214Y578184D01*
X585136Y578106D01*
X585054Y578031D01*
X584971Y577958D01*
X584885Y577888D01*
X584796Y577821D01*
X584705Y577758D01*
X584612Y577697D01*
X584518Y577640D01*
X584421Y577587D01*
X584322Y577536D01*
X584221Y577489D01*
X584119Y577446D01*
X584016Y577406D01*
X583911Y577370D01*
X583805Y577338D01*
X583698Y577309D01*
X583590Y577284D01*
X583481Y577263D01*
X583372Y577246D01*
X583262Y577232D01*
X583151Y577223D01*
X583041Y577217D01*
X582930Y577215D01*
X579755Y577215D01*
X583565Y577215D02*
X586105Y572135D01*
X591102Y581025D02*
X594277Y583565D01*
X594277Y572135D01*
X591102Y572135D02*
X597452Y572135D01*
D13*
X580390Y36830D02*
X580290Y36828D01*
X580191Y36822D01*
X580091Y36812D01*
X579993Y36799D01*
X579894Y36781D01*
X579797Y36760D01*
X579701Y36735D01*
X579605Y36706D01*
X579511Y36673D01*
X579418Y36637D01*
X579327Y36597D01*
X579237Y36553D01*
X579149Y36506D01*
X579063Y36456D01*
X578979Y36402D01*
X578897Y36345D01*
X578818Y36285D01*
X578740Y36221D01*
X578666Y36155D01*
X578594Y36086D01*
X578525Y36014D01*
X578459Y35940D01*
X578395Y35862D01*
X578335Y35783D01*
X578278Y35701D01*
X578224Y35617D01*
X578174Y35531D01*
X578127Y35443D01*
X578083Y35353D01*
X578043Y35262D01*
X578007Y35169D01*
X577974Y35075D01*
X577945Y34979D01*
X577920Y34883D01*
X577899Y34786D01*
X577881Y34687D01*
X577868Y34589D01*
X577858Y34489D01*
X577852Y34390D01*
X577850Y34290D01*
X577850Y16510D02*
X577852Y16410D01*
X577858Y16311D01*
X577868Y16211D01*
X577881Y16113D01*
X577899Y16014D01*
X577920Y15917D01*
X577945Y15821D01*
X577974Y15725D01*
X578007Y15631D01*
X578043Y15538D01*
X578083Y15447D01*
X578127Y15357D01*
X578174Y15269D01*
X578224Y15183D01*
X578278Y15099D01*
X578335Y15017D01*
X578395Y14938D01*
X578459Y14860D01*
X578525Y14786D01*
X578594Y14714D01*
X578666Y14645D01*
X578740Y14579D01*
X578818Y14515D01*
X578897Y14455D01*
X578979Y14398D01*
X579063Y14344D01*
X579149Y14294D01*
X579237Y14247D01*
X579327Y14203D01*
X579418Y14163D01*
X579511Y14127D01*
X579605Y14094D01*
X579701Y14065D01*
X579797Y14040D01*
X579894Y14019D01*
X579993Y14001D01*
X580091Y13988D01*
X580191Y13978D01*
X580290Y13972D01*
X580390Y13970D01*
X638810Y13970D02*
X638910Y13972D01*
X639009Y13978D01*
X639109Y13988D01*
X639207Y14001D01*
X639306Y14019D01*
X639403Y14040D01*
X639499Y14065D01*
X639595Y14094D01*
X639689Y14127D01*
X639782Y14163D01*
X639873Y14203D01*
X639963Y14247D01*
X640051Y14294D01*
X640137Y14344D01*
X640221Y14398D01*
X640303Y14455D01*
X640382Y14515D01*
X640460Y14579D01*
X640534Y14645D01*
X640606Y14714D01*
X640675Y14786D01*
X640741Y14860D01*
X640805Y14938D01*
X640865Y15017D01*
X640922Y15099D01*
X640976Y15183D01*
X641026Y15269D01*
X641073Y15357D01*
X641117Y15447D01*
X641157Y15538D01*
X641193Y15631D01*
X641226Y15725D01*
X641255Y15821D01*
X641280Y15917D01*
X641301Y16014D01*
X641319Y16113D01*
X641332Y16211D01*
X641342Y16311D01*
X641348Y16410D01*
X641350Y16510D01*
X641350Y34290D02*
X641348Y34390D01*
X641342Y34489D01*
X641332Y34589D01*
X641319Y34687D01*
X641301Y34786D01*
X641280Y34883D01*
X641255Y34979D01*
X641226Y35075D01*
X641193Y35169D01*
X641157Y35262D01*
X641117Y35353D01*
X641073Y35443D01*
X641026Y35531D01*
X640976Y35617D01*
X640922Y35701D01*
X640865Y35783D01*
X640805Y35862D01*
X640741Y35940D01*
X640675Y36014D01*
X640606Y36086D01*
X640534Y36155D01*
X640460Y36221D01*
X640382Y36285D01*
X640303Y36345D01*
X640221Y36402D01*
X640137Y36456D01*
X640051Y36506D01*
X639963Y36553D01*
X639873Y36597D01*
X639782Y36637D01*
X639689Y36673D01*
X639595Y36706D01*
X639499Y36735D01*
X639403Y36760D01*
X639306Y36781D01*
X639207Y36799D01*
X639109Y36812D01*
X639009Y36822D01*
X638910Y36828D01*
X638810Y36830D01*
X577850Y34290D02*
X577850Y16510D01*
X580390Y36830D02*
X584200Y36830D01*
X585470Y35560D01*
X584200Y13970D02*
X580390Y13970D01*
X584200Y13970D02*
X585470Y15240D01*
X633730Y35560D02*
X635000Y36830D01*
X633730Y35560D02*
X585470Y35560D01*
X633730Y15240D02*
X635000Y13970D01*
X633730Y15240D02*
X585470Y15240D01*
X635000Y36830D02*
X638810Y36830D01*
X638810Y13970D02*
X635000Y13970D01*
X641350Y16510D02*
X641350Y34290D01*
D21*
X645668Y25400D03*
X573532Y25400D03*
D10*
X643255Y14605D02*
X643255Y3175D01*
X643255Y14605D02*
X646430Y14605D01*
X646541Y14603D01*
X646651Y14597D01*
X646762Y14588D01*
X646872Y14574D01*
X646981Y14557D01*
X647090Y14536D01*
X647198Y14511D01*
X647305Y14482D01*
X647411Y14450D01*
X647516Y14414D01*
X647619Y14374D01*
X647721Y14331D01*
X647822Y14284D01*
X647921Y14233D01*
X648018Y14180D01*
X648112Y14123D01*
X648205Y14062D01*
X648296Y13999D01*
X648385Y13932D01*
X648471Y13862D01*
X648554Y13789D01*
X648636Y13714D01*
X648714Y13636D01*
X648789Y13554D01*
X648862Y13471D01*
X648932Y13385D01*
X648999Y13296D01*
X649062Y13205D01*
X649123Y13112D01*
X649180Y13017D01*
X649233Y12921D01*
X649284Y12822D01*
X649331Y12721D01*
X649374Y12619D01*
X649414Y12516D01*
X649450Y12411D01*
X649482Y12305D01*
X649511Y12198D01*
X649536Y12090D01*
X649557Y11981D01*
X649574Y11872D01*
X649588Y11762D01*
X649597Y11651D01*
X649603Y11541D01*
X649605Y11430D01*
X649603Y11319D01*
X649597Y11209D01*
X649588Y11098D01*
X649574Y10988D01*
X649557Y10879D01*
X649536Y10770D01*
X649511Y10662D01*
X649482Y10555D01*
X649450Y10449D01*
X649414Y10344D01*
X649374Y10241D01*
X649331Y10139D01*
X649284Y10038D01*
X649233Y9939D01*
X649180Y9842D01*
X649123Y9748D01*
X649062Y9655D01*
X648999Y9564D01*
X648932Y9475D01*
X648862Y9389D01*
X648789Y9306D01*
X648714Y9224D01*
X648636Y9146D01*
X648554Y9071D01*
X648471Y8998D01*
X648385Y8928D01*
X648296Y8861D01*
X648205Y8798D01*
X648112Y8737D01*
X648018Y8680D01*
X647921Y8627D01*
X647822Y8576D01*
X647721Y8529D01*
X647619Y8486D01*
X647516Y8446D01*
X647411Y8410D01*
X647305Y8378D01*
X647198Y8349D01*
X647090Y8324D01*
X646981Y8303D01*
X646872Y8286D01*
X646762Y8272D01*
X646651Y8263D01*
X646541Y8257D01*
X646430Y8255D01*
X643255Y8255D01*
X647065Y8255D02*
X649605Y3175D01*
X660953Y11748D02*
X660951Y11852D01*
X660945Y11957D01*
X660936Y12061D01*
X660923Y12164D01*
X660905Y12267D01*
X660885Y12369D01*
X660860Y12471D01*
X660832Y12571D01*
X660800Y12671D01*
X660764Y12769D01*
X660725Y12866D01*
X660683Y12961D01*
X660637Y13055D01*
X660587Y13147D01*
X660535Y13237D01*
X660479Y13325D01*
X660419Y13411D01*
X660357Y13495D01*
X660292Y13576D01*
X660224Y13655D01*
X660152Y13732D01*
X660079Y13805D01*
X660002Y13877D01*
X659923Y13945D01*
X659842Y14010D01*
X659758Y14072D01*
X659672Y14132D01*
X659584Y14188D01*
X659494Y14240D01*
X659402Y14290D01*
X659308Y14336D01*
X659213Y14378D01*
X659116Y14417D01*
X659018Y14453D01*
X658918Y14485D01*
X658818Y14513D01*
X658716Y14538D01*
X658614Y14558D01*
X658511Y14576D01*
X658408Y14589D01*
X658304Y14598D01*
X658199Y14604D01*
X658095Y14606D01*
X658095Y14605D02*
X657977Y14603D01*
X657858Y14597D01*
X657740Y14588D01*
X657623Y14575D01*
X657506Y14557D01*
X657389Y14537D01*
X657273Y14512D01*
X657158Y14484D01*
X657045Y14451D01*
X656932Y14416D01*
X656820Y14376D01*
X656710Y14334D01*
X656601Y14287D01*
X656493Y14237D01*
X656388Y14184D01*
X656284Y14127D01*
X656182Y14067D01*
X656082Y14004D01*
X655984Y13937D01*
X655888Y13868D01*
X655795Y13795D01*
X655704Y13719D01*
X655615Y13641D01*
X655529Y13559D01*
X655446Y13475D01*
X655365Y13389D01*
X655288Y13299D01*
X655213Y13208D01*
X655141Y13114D01*
X655072Y13017D01*
X655007Y12919D01*
X654944Y12818D01*
X654885Y12715D01*
X654829Y12611D01*
X654777Y12505D01*
X654728Y12397D01*
X654683Y12288D01*
X654641Y12177D01*
X654603Y12065D01*
X660000Y9526D02*
X660076Y9601D01*
X660151Y9680D01*
X660222Y9761D01*
X660291Y9845D01*
X660356Y9931D01*
X660418Y10019D01*
X660478Y10109D01*
X660534Y10201D01*
X660587Y10296D01*
X660636Y10392D01*
X660682Y10490D01*
X660725Y10589D01*
X660764Y10690D01*
X660799Y10792D01*
X660831Y10895D01*
X660859Y10999D01*
X660884Y11104D01*
X660905Y11211D01*
X660922Y11317D01*
X660935Y11424D01*
X660944Y11532D01*
X660950Y11640D01*
X660952Y11748D01*
X660000Y9525D02*
X654602Y3175D01*
X660952Y3175D01*
D13*
X416560Y463550D02*
X416460Y463552D01*
X416361Y463558D01*
X416261Y463568D01*
X416163Y463581D01*
X416064Y463599D01*
X415967Y463620D01*
X415871Y463645D01*
X415775Y463674D01*
X415681Y463707D01*
X415588Y463743D01*
X415497Y463783D01*
X415407Y463827D01*
X415319Y463874D01*
X415233Y463924D01*
X415149Y463978D01*
X415067Y464035D01*
X414988Y464095D01*
X414910Y464159D01*
X414836Y464225D01*
X414764Y464294D01*
X414695Y464366D01*
X414629Y464440D01*
X414565Y464518D01*
X414505Y464597D01*
X414448Y464679D01*
X414394Y464763D01*
X414344Y464849D01*
X414297Y464937D01*
X414253Y465027D01*
X414213Y465118D01*
X414177Y465211D01*
X414144Y465305D01*
X414115Y465401D01*
X414090Y465497D01*
X414069Y465594D01*
X414051Y465693D01*
X414038Y465791D01*
X414028Y465891D01*
X414022Y465990D01*
X414020Y466090D01*
X434340Y463550D02*
X434440Y463552D01*
X434539Y463558D01*
X434639Y463568D01*
X434737Y463581D01*
X434836Y463599D01*
X434933Y463620D01*
X435029Y463645D01*
X435125Y463674D01*
X435219Y463707D01*
X435312Y463743D01*
X435403Y463783D01*
X435493Y463827D01*
X435581Y463874D01*
X435667Y463924D01*
X435751Y463978D01*
X435833Y464035D01*
X435912Y464095D01*
X435990Y464159D01*
X436064Y464225D01*
X436136Y464294D01*
X436205Y464366D01*
X436271Y464440D01*
X436335Y464518D01*
X436395Y464597D01*
X436452Y464679D01*
X436506Y464763D01*
X436556Y464849D01*
X436603Y464937D01*
X436647Y465027D01*
X436687Y465118D01*
X436723Y465211D01*
X436756Y465305D01*
X436785Y465401D01*
X436810Y465497D01*
X436831Y465594D01*
X436849Y465693D01*
X436862Y465791D01*
X436872Y465891D01*
X436878Y465990D01*
X436880Y466090D01*
X436880Y524510D02*
X436878Y524610D01*
X436872Y524709D01*
X436862Y524809D01*
X436849Y524907D01*
X436831Y525006D01*
X436810Y525103D01*
X436785Y525199D01*
X436756Y525295D01*
X436723Y525389D01*
X436687Y525482D01*
X436647Y525573D01*
X436603Y525663D01*
X436556Y525751D01*
X436506Y525837D01*
X436452Y525921D01*
X436395Y526003D01*
X436335Y526082D01*
X436271Y526160D01*
X436205Y526234D01*
X436136Y526306D01*
X436064Y526375D01*
X435990Y526441D01*
X435912Y526505D01*
X435833Y526565D01*
X435751Y526622D01*
X435667Y526676D01*
X435581Y526726D01*
X435493Y526773D01*
X435403Y526817D01*
X435312Y526857D01*
X435219Y526893D01*
X435125Y526926D01*
X435029Y526955D01*
X434933Y526980D01*
X434836Y527001D01*
X434737Y527019D01*
X434639Y527032D01*
X434539Y527042D01*
X434440Y527048D01*
X434340Y527050D01*
X416560Y527050D02*
X416460Y527048D01*
X416361Y527042D01*
X416261Y527032D01*
X416163Y527019D01*
X416064Y527001D01*
X415967Y526980D01*
X415871Y526955D01*
X415775Y526926D01*
X415681Y526893D01*
X415588Y526857D01*
X415497Y526817D01*
X415407Y526773D01*
X415319Y526726D01*
X415233Y526676D01*
X415149Y526622D01*
X415067Y526565D01*
X414988Y526505D01*
X414910Y526441D01*
X414836Y526375D01*
X414764Y526306D01*
X414695Y526234D01*
X414629Y526160D01*
X414565Y526082D01*
X414505Y526003D01*
X414448Y525921D01*
X414394Y525837D01*
X414344Y525751D01*
X414297Y525663D01*
X414253Y525573D01*
X414213Y525482D01*
X414177Y525389D01*
X414144Y525295D01*
X414115Y525199D01*
X414090Y525103D01*
X414069Y525006D01*
X414051Y524907D01*
X414038Y524809D01*
X414028Y524709D01*
X414022Y524610D01*
X414020Y524510D01*
X416560Y463550D02*
X434340Y463550D01*
X414020Y466090D02*
X414020Y469900D01*
X415290Y471170D01*
X436880Y469900D02*
X436880Y466090D01*
X436880Y469900D02*
X435610Y471170D01*
X415290Y519430D02*
X414020Y520700D01*
X415290Y519430D02*
X415290Y471170D01*
X435610Y519430D02*
X436880Y520700D01*
X435610Y519430D02*
X435610Y471170D01*
X414020Y520700D02*
X414020Y524510D01*
X436880Y524510D02*
X436880Y520700D01*
X434340Y527050D02*
X416560Y527050D01*
D22*
X425450Y531368D03*
X425450Y459232D03*
D10*
X436245Y503555D02*
X447675Y503555D01*
X436245Y503555D02*
X436245Y506730D01*
X436247Y506841D01*
X436253Y506951D01*
X436262Y507062D01*
X436276Y507172D01*
X436293Y507281D01*
X436314Y507390D01*
X436339Y507498D01*
X436368Y507605D01*
X436400Y507711D01*
X436436Y507816D01*
X436476Y507919D01*
X436519Y508021D01*
X436566Y508122D01*
X436617Y508221D01*
X436670Y508318D01*
X436727Y508412D01*
X436788Y508505D01*
X436851Y508596D01*
X436918Y508685D01*
X436988Y508771D01*
X437061Y508854D01*
X437136Y508936D01*
X437214Y509014D01*
X437296Y509089D01*
X437379Y509162D01*
X437465Y509232D01*
X437554Y509299D01*
X437645Y509362D01*
X437738Y509423D01*
X437833Y509480D01*
X437929Y509533D01*
X438028Y509584D01*
X438129Y509631D01*
X438231Y509674D01*
X438334Y509714D01*
X438439Y509750D01*
X438545Y509782D01*
X438652Y509811D01*
X438760Y509836D01*
X438869Y509857D01*
X438978Y509874D01*
X439088Y509888D01*
X439199Y509897D01*
X439309Y509903D01*
X439420Y509905D01*
X439531Y509903D01*
X439641Y509897D01*
X439752Y509888D01*
X439862Y509874D01*
X439971Y509857D01*
X440080Y509836D01*
X440188Y509811D01*
X440295Y509782D01*
X440401Y509750D01*
X440506Y509714D01*
X440609Y509674D01*
X440711Y509631D01*
X440812Y509584D01*
X440911Y509533D01*
X441008Y509480D01*
X441102Y509423D01*
X441195Y509362D01*
X441286Y509299D01*
X441375Y509232D01*
X441461Y509162D01*
X441544Y509089D01*
X441626Y509014D01*
X441704Y508936D01*
X441779Y508854D01*
X441852Y508771D01*
X441922Y508685D01*
X441989Y508596D01*
X442052Y508505D01*
X442113Y508412D01*
X442170Y508318D01*
X442223Y508221D01*
X442274Y508122D01*
X442321Y508021D01*
X442364Y507919D01*
X442404Y507816D01*
X442440Y507711D01*
X442472Y507605D01*
X442501Y507498D01*
X442526Y507390D01*
X442547Y507281D01*
X442564Y507172D01*
X442578Y507062D01*
X442587Y506951D01*
X442593Y506841D01*
X442595Y506730D01*
X442595Y503555D01*
X442595Y507365D02*
X447675Y509905D01*
X447675Y514902D02*
X447675Y518077D01*
X447673Y518188D01*
X447667Y518298D01*
X447658Y518409D01*
X447644Y518519D01*
X447627Y518628D01*
X447606Y518737D01*
X447581Y518845D01*
X447552Y518952D01*
X447520Y519058D01*
X447484Y519163D01*
X447444Y519266D01*
X447401Y519368D01*
X447354Y519469D01*
X447303Y519568D01*
X447250Y519665D01*
X447193Y519759D01*
X447132Y519852D01*
X447069Y519943D01*
X447002Y520032D01*
X446932Y520118D01*
X446859Y520201D01*
X446784Y520283D01*
X446706Y520361D01*
X446624Y520436D01*
X446541Y520509D01*
X446455Y520579D01*
X446366Y520646D01*
X446275Y520709D01*
X446182Y520770D01*
X446088Y520827D01*
X445991Y520880D01*
X445892Y520931D01*
X445791Y520978D01*
X445689Y521021D01*
X445586Y521061D01*
X445481Y521097D01*
X445375Y521129D01*
X445268Y521158D01*
X445160Y521183D01*
X445051Y521204D01*
X444942Y521221D01*
X444832Y521235D01*
X444721Y521244D01*
X444611Y521250D01*
X444500Y521252D01*
X444389Y521250D01*
X444279Y521244D01*
X444168Y521235D01*
X444058Y521221D01*
X443949Y521204D01*
X443840Y521183D01*
X443732Y521158D01*
X443625Y521129D01*
X443519Y521097D01*
X443414Y521061D01*
X443311Y521021D01*
X443209Y520978D01*
X443108Y520931D01*
X443009Y520880D01*
X442913Y520827D01*
X442818Y520770D01*
X442725Y520709D01*
X442634Y520646D01*
X442545Y520579D01*
X442459Y520509D01*
X442376Y520436D01*
X442294Y520361D01*
X442216Y520283D01*
X442141Y520201D01*
X442068Y520118D01*
X441998Y520032D01*
X441931Y519943D01*
X441868Y519852D01*
X441807Y519759D01*
X441750Y519665D01*
X441697Y519568D01*
X441646Y519469D01*
X441599Y519368D01*
X441556Y519266D01*
X441516Y519163D01*
X441480Y519058D01*
X441448Y518952D01*
X441419Y518845D01*
X441394Y518737D01*
X441373Y518628D01*
X441356Y518519D01*
X441342Y518409D01*
X441333Y518298D01*
X441327Y518188D01*
X441325Y518077D01*
X436245Y518712D02*
X436245Y514902D01*
X436245Y518712D02*
X436247Y518812D01*
X436253Y518911D01*
X436263Y519011D01*
X436276Y519109D01*
X436294Y519208D01*
X436315Y519305D01*
X436340Y519401D01*
X436369Y519497D01*
X436402Y519591D01*
X436438Y519684D01*
X436478Y519775D01*
X436522Y519865D01*
X436569Y519953D01*
X436619Y520039D01*
X436673Y520123D01*
X436730Y520205D01*
X436790Y520284D01*
X436854Y520362D01*
X436920Y520436D01*
X436989Y520508D01*
X437061Y520577D01*
X437135Y520643D01*
X437213Y520707D01*
X437292Y520767D01*
X437374Y520824D01*
X437458Y520878D01*
X437544Y520928D01*
X437632Y520975D01*
X437722Y521019D01*
X437813Y521059D01*
X437906Y521095D01*
X438000Y521128D01*
X438096Y521157D01*
X438192Y521182D01*
X438289Y521203D01*
X438388Y521221D01*
X438486Y521234D01*
X438586Y521244D01*
X438685Y521250D01*
X438785Y521252D01*
X438885Y521250D01*
X438984Y521244D01*
X439084Y521234D01*
X439182Y521221D01*
X439281Y521203D01*
X439378Y521182D01*
X439474Y521157D01*
X439570Y521128D01*
X439664Y521095D01*
X439757Y521059D01*
X439848Y521019D01*
X439938Y520975D01*
X440026Y520928D01*
X440112Y520878D01*
X440196Y520824D01*
X440278Y520767D01*
X440357Y520707D01*
X440435Y520643D01*
X440509Y520577D01*
X440581Y520508D01*
X440650Y520436D01*
X440716Y520362D01*
X440780Y520284D01*
X440840Y520205D01*
X440897Y520123D01*
X440951Y520039D01*
X441001Y519953D01*
X441048Y519865D01*
X441092Y519775D01*
X441132Y519684D01*
X441168Y519591D01*
X441201Y519497D01*
X441230Y519401D01*
X441255Y519305D01*
X441276Y519208D01*
X441294Y519109D01*
X441307Y519011D01*
X441317Y518911D01*
X441323Y518812D01*
X441325Y518712D01*
X441325Y516172D01*
D13*
X389890Y463550D02*
X389790Y463552D01*
X389691Y463558D01*
X389591Y463568D01*
X389493Y463581D01*
X389394Y463599D01*
X389297Y463620D01*
X389201Y463645D01*
X389105Y463674D01*
X389011Y463707D01*
X388918Y463743D01*
X388827Y463783D01*
X388737Y463827D01*
X388649Y463874D01*
X388563Y463924D01*
X388479Y463978D01*
X388397Y464035D01*
X388318Y464095D01*
X388240Y464159D01*
X388166Y464225D01*
X388094Y464294D01*
X388025Y464366D01*
X387959Y464440D01*
X387895Y464518D01*
X387835Y464597D01*
X387778Y464679D01*
X387724Y464763D01*
X387674Y464849D01*
X387627Y464937D01*
X387583Y465027D01*
X387543Y465118D01*
X387507Y465211D01*
X387474Y465305D01*
X387445Y465401D01*
X387420Y465497D01*
X387399Y465594D01*
X387381Y465693D01*
X387368Y465791D01*
X387358Y465891D01*
X387352Y465990D01*
X387350Y466090D01*
X407670Y463550D02*
X407770Y463552D01*
X407869Y463558D01*
X407969Y463568D01*
X408067Y463581D01*
X408166Y463599D01*
X408263Y463620D01*
X408359Y463645D01*
X408455Y463674D01*
X408549Y463707D01*
X408642Y463743D01*
X408733Y463783D01*
X408823Y463827D01*
X408911Y463874D01*
X408997Y463924D01*
X409081Y463978D01*
X409163Y464035D01*
X409242Y464095D01*
X409320Y464159D01*
X409394Y464225D01*
X409466Y464294D01*
X409535Y464366D01*
X409601Y464440D01*
X409665Y464518D01*
X409725Y464597D01*
X409782Y464679D01*
X409836Y464763D01*
X409886Y464849D01*
X409933Y464937D01*
X409977Y465027D01*
X410017Y465118D01*
X410053Y465211D01*
X410086Y465305D01*
X410115Y465401D01*
X410140Y465497D01*
X410161Y465594D01*
X410179Y465693D01*
X410192Y465791D01*
X410202Y465891D01*
X410208Y465990D01*
X410210Y466090D01*
X410210Y524510D02*
X410208Y524610D01*
X410202Y524709D01*
X410192Y524809D01*
X410179Y524907D01*
X410161Y525006D01*
X410140Y525103D01*
X410115Y525199D01*
X410086Y525295D01*
X410053Y525389D01*
X410017Y525482D01*
X409977Y525573D01*
X409933Y525663D01*
X409886Y525751D01*
X409836Y525837D01*
X409782Y525921D01*
X409725Y526003D01*
X409665Y526082D01*
X409601Y526160D01*
X409535Y526234D01*
X409466Y526306D01*
X409394Y526375D01*
X409320Y526441D01*
X409242Y526505D01*
X409163Y526565D01*
X409081Y526622D01*
X408997Y526676D01*
X408911Y526726D01*
X408823Y526773D01*
X408733Y526817D01*
X408642Y526857D01*
X408549Y526893D01*
X408455Y526926D01*
X408359Y526955D01*
X408263Y526980D01*
X408166Y527001D01*
X408067Y527019D01*
X407969Y527032D01*
X407869Y527042D01*
X407770Y527048D01*
X407670Y527050D01*
X389890Y527050D02*
X389790Y527048D01*
X389691Y527042D01*
X389591Y527032D01*
X389493Y527019D01*
X389394Y527001D01*
X389297Y526980D01*
X389201Y526955D01*
X389105Y526926D01*
X389011Y526893D01*
X388918Y526857D01*
X388827Y526817D01*
X388737Y526773D01*
X388649Y526726D01*
X388563Y526676D01*
X388479Y526622D01*
X388397Y526565D01*
X388318Y526505D01*
X388240Y526441D01*
X388166Y526375D01*
X388094Y526306D01*
X388025Y526234D01*
X387959Y526160D01*
X387895Y526082D01*
X387835Y526003D01*
X387778Y525921D01*
X387724Y525837D01*
X387674Y525751D01*
X387627Y525663D01*
X387583Y525573D01*
X387543Y525482D01*
X387507Y525389D01*
X387474Y525295D01*
X387445Y525199D01*
X387420Y525103D01*
X387399Y525006D01*
X387381Y524907D01*
X387368Y524809D01*
X387358Y524709D01*
X387352Y524610D01*
X387350Y524510D01*
X389890Y463550D02*
X407670Y463550D01*
X387350Y466090D02*
X387350Y469900D01*
X388620Y471170D01*
X410210Y469900D02*
X410210Y466090D01*
X410210Y469900D02*
X408940Y471170D01*
X388620Y519430D02*
X387350Y520700D01*
X388620Y519430D02*
X388620Y471170D01*
X408940Y519430D02*
X410210Y520700D01*
X408940Y519430D02*
X408940Y471170D01*
X387350Y520700D02*
X387350Y524510D01*
X410210Y524510D02*
X410210Y520700D01*
X407670Y527050D02*
X389890Y527050D01*
D22*
X398780Y531368D03*
X398780Y459232D03*
D10*
X382905Y503555D02*
X371475Y503555D01*
X371475Y506730D01*
X371477Y506841D01*
X371483Y506951D01*
X371492Y507062D01*
X371506Y507172D01*
X371523Y507281D01*
X371544Y507390D01*
X371569Y507498D01*
X371598Y507605D01*
X371630Y507711D01*
X371666Y507816D01*
X371706Y507919D01*
X371749Y508021D01*
X371796Y508122D01*
X371847Y508221D01*
X371900Y508318D01*
X371957Y508412D01*
X372018Y508505D01*
X372081Y508596D01*
X372148Y508685D01*
X372218Y508771D01*
X372291Y508854D01*
X372366Y508936D01*
X372444Y509014D01*
X372526Y509089D01*
X372609Y509162D01*
X372695Y509232D01*
X372784Y509299D01*
X372875Y509362D01*
X372968Y509423D01*
X373063Y509480D01*
X373159Y509533D01*
X373258Y509584D01*
X373359Y509631D01*
X373461Y509674D01*
X373564Y509714D01*
X373669Y509750D01*
X373775Y509782D01*
X373882Y509811D01*
X373990Y509836D01*
X374099Y509857D01*
X374208Y509874D01*
X374318Y509888D01*
X374429Y509897D01*
X374539Y509903D01*
X374650Y509905D01*
X374761Y509903D01*
X374871Y509897D01*
X374982Y509888D01*
X375092Y509874D01*
X375201Y509857D01*
X375310Y509836D01*
X375418Y509811D01*
X375525Y509782D01*
X375631Y509750D01*
X375736Y509714D01*
X375839Y509674D01*
X375941Y509631D01*
X376042Y509584D01*
X376141Y509533D01*
X376238Y509480D01*
X376332Y509423D01*
X376425Y509362D01*
X376516Y509299D01*
X376605Y509232D01*
X376691Y509162D01*
X376774Y509089D01*
X376856Y509014D01*
X376934Y508936D01*
X377009Y508854D01*
X377082Y508771D01*
X377152Y508685D01*
X377219Y508596D01*
X377282Y508505D01*
X377343Y508412D01*
X377400Y508318D01*
X377453Y508221D01*
X377504Y508122D01*
X377551Y508021D01*
X377594Y507919D01*
X377634Y507816D01*
X377670Y507711D01*
X377702Y507605D01*
X377731Y507498D01*
X377756Y507390D01*
X377777Y507281D01*
X377794Y507172D01*
X377808Y507062D01*
X377817Y506951D01*
X377823Y506841D01*
X377825Y506730D01*
X377825Y503555D01*
X377825Y507365D02*
X382905Y509905D01*
X380365Y514902D02*
X371475Y517442D01*
X380365Y514902D02*
X380365Y521252D01*
X377825Y519347D02*
X382905Y519347D01*
D13*
X537210Y433070D02*
X537310Y433072D01*
X537409Y433078D01*
X537509Y433088D01*
X537607Y433101D01*
X537706Y433119D01*
X537803Y433140D01*
X537899Y433165D01*
X537995Y433194D01*
X538089Y433227D01*
X538182Y433263D01*
X538273Y433303D01*
X538363Y433347D01*
X538451Y433394D01*
X538537Y433444D01*
X538621Y433498D01*
X538703Y433555D01*
X538782Y433615D01*
X538860Y433679D01*
X538934Y433745D01*
X539006Y433814D01*
X539075Y433886D01*
X539141Y433960D01*
X539205Y434038D01*
X539265Y434117D01*
X539322Y434199D01*
X539376Y434283D01*
X539426Y434369D01*
X539473Y434457D01*
X539517Y434547D01*
X539557Y434638D01*
X539593Y434731D01*
X539626Y434825D01*
X539655Y434921D01*
X539680Y435017D01*
X539701Y435114D01*
X539719Y435213D01*
X539732Y435311D01*
X539742Y435411D01*
X539748Y435510D01*
X539750Y435610D01*
X539750Y453390D02*
X539748Y453490D01*
X539742Y453589D01*
X539732Y453689D01*
X539719Y453787D01*
X539701Y453886D01*
X539680Y453983D01*
X539655Y454079D01*
X539626Y454175D01*
X539593Y454269D01*
X539557Y454362D01*
X539517Y454453D01*
X539473Y454543D01*
X539426Y454631D01*
X539376Y454717D01*
X539322Y454801D01*
X539265Y454883D01*
X539205Y454962D01*
X539141Y455040D01*
X539075Y455114D01*
X539006Y455186D01*
X538934Y455255D01*
X538860Y455321D01*
X538782Y455385D01*
X538703Y455445D01*
X538621Y455502D01*
X538537Y455556D01*
X538451Y455606D01*
X538363Y455653D01*
X538273Y455697D01*
X538182Y455737D01*
X538089Y455773D01*
X537995Y455806D01*
X537899Y455835D01*
X537803Y455860D01*
X537706Y455881D01*
X537607Y455899D01*
X537509Y455912D01*
X537409Y455922D01*
X537310Y455928D01*
X537210Y455930D01*
X478790Y455930D02*
X478690Y455928D01*
X478591Y455922D01*
X478491Y455912D01*
X478393Y455899D01*
X478294Y455881D01*
X478197Y455860D01*
X478101Y455835D01*
X478005Y455806D01*
X477911Y455773D01*
X477818Y455737D01*
X477727Y455697D01*
X477637Y455653D01*
X477549Y455606D01*
X477463Y455556D01*
X477379Y455502D01*
X477297Y455445D01*
X477218Y455385D01*
X477140Y455321D01*
X477066Y455255D01*
X476994Y455186D01*
X476925Y455114D01*
X476859Y455040D01*
X476795Y454962D01*
X476735Y454883D01*
X476678Y454801D01*
X476624Y454717D01*
X476574Y454631D01*
X476527Y454543D01*
X476483Y454453D01*
X476443Y454362D01*
X476407Y454269D01*
X476374Y454175D01*
X476345Y454079D01*
X476320Y453983D01*
X476299Y453886D01*
X476281Y453787D01*
X476268Y453689D01*
X476258Y453589D01*
X476252Y453490D01*
X476250Y453390D01*
X476250Y435610D02*
X476252Y435510D01*
X476258Y435411D01*
X476268Y435311D01*
X476281Y435213D01*
X476299Y435114D01*
X476320Y435017D01*
X476345Y434921D01*
X476374Y434825D01*
X476407Y434731D01*
X476443Y434638D01*
X476483Y434547D01*
X476527Y434457D01*
X476574Y434369D01*
X476624Y434283D01*
X476678Y434199D01*
X476735Y434117D01*
X476795Y434038D01*
X476859Y433960D01*
X476925Y433886D01*
X476994Y433814D01*
X477066Y433745D01*
X477140Y433679D01*
X477218Y433615D01*
X477297Y433555D01*
X477379Y433498D01*
X477463Y433444D01*
X477549Y433394D01*
X477637Y433347D01*
X477727Y433303D01*
X477818Y433263D01*
X477911Y433227D01*
X478005Y433194D01*
X478101Y433165D01*
X478197Y433140D01*
X478294Y433119D01*
X478393Y433101D01*
X478491Y433088D01*
X478591Y433078D01*
X478690Y433072D01*
X478790Y433070D01*
X539750Y435610D02*
X539750Y453390D01*
X537210Y433070D02*
X533400Y433070D01*
X532130Y434340D01*
X533400Y455930D02*
X537210Y455930D01*
X533400Y455930D02*
X532130Y454660D01*
X483870Y434340D02*
X482600Y433070D01*
X483870Y434340D02*
X532130Y434340D01*
X483870Y454660D02*
X482600Y455930D01*
X483870Y454660D02*
X532130Y454660D01*
X482600Y433070D02*
X478790Y433070D01*
X478790Y455930D02*
X482600Y455930D01*
X476250Y453390D02*
X476250Y435610D01*
D21*
X471932Y444500D03*
X544068Y444500D03*
D10*
X520148Y428625D02*
X520148Y417195D01*
X520148Y428625D02*
X523323Y428625D01*
X523434Y428623D01*
X523544Y428617D01*
X523655Y428608D01*
X523765Y428594D01*
X523874Y428577D01*
X523983Y428556D01*
X524091Y428531D01*
X524198Y428502D01*
X524304Y428470D01*
X524409Y428434D01*
X524512Y428394D01*
X524614Y428351D01*
X524715Y428304D01*
X524814Y428253D01*
X524911Y428200D01*
X525005Y428143D01*
X525098Y428082D01*
X525189Y428019D01*
X525278Y427952D01*
X525364Y427882D01*
X525447Y427809D01*
X525529Y427734D01*
X525607Y427656D01*
X525682Y427574D01*
X525755Y427491D01*
X525825Y427405D01*
X525892Y427316D01*
X525955Y427225D01*
X526016Y427132D01*
X526073Y427037D01*
X526126Y426941D01*
X526177Y426842D01*
X526224Y426741D01*
X526267Y426639D01*
X526307Y426536D01*
X526343Y426431D01*
X526375Y426325D01*
X526404Y426218D01*
X526429Y426110D01*
X526450Y426001D01*
X526467Y425892D01*
X526481Y425782D01*
X526490Y425671D01*
X526496Y425561D01*
X526498Y425450D01*
X526496Y425339D01*
X526490Y425229D01*
X526481Y425118D01*
X526467Y425008D01*
X526450Y424899D01*
X526429Y424790D01*
X526404Y424682D01*
X526375Y424575D01*
X526343Y424469D01*
X526307Y424364D01*
X526267Y424261D01*
X526224Y424159D01*
X526177Y424058D01*
X526126Y423959D01*
X526073Y423862D01*
X526016Y423768D01*
X525955Y423675D01*
X525892Y423584D01*
X525825Y423495D01*
X525755Y423409D01*
X525682Y423326D01*
X525607Y423244D01*
X525529Y423166D01*
X525447Y423091D01*
X525364Y423018D01*
X525278Y422948D01*
X525189Y422881D01*
X525098Y422818D01*
X525005Y422757D01*
X524911Y422700D01*
X524814Y422647D01*
X524715Y422596D01*
X524614Y422549D01*
X524512Y422506D01*
X524409Y422466D01*
X524304Y422430D01*
X524198Y422398D01*
X524091Y422369D01*
X523983Y422344D01*
X523874Y422323D01*
X523765Y422306D01*
X523655Y422292D01*
X523544Y422283D01*
X523434Y422277D01*
X523323Y422275D01*
X520148Y422275D01*
X523958Y422275D02*
X526498Y417195D01*
X531495Y417195D02*
X535305Y417195D01*
X535405Y417197D01*
X535504Y417203D01*
X535604Y417213D01*
X535702Y417226D01*
X535801Y417244D01*
X535898Y417265D01*
X535994Y417290D01*
X536090Y417319D01*
X536184Y417352D01*
X536277Y417388D01*
X536368Y417428D01*
X536458Y417472D01*
X536546Y417519D01*
X536632Y417569D01*
X536716Y417623D01*
X536798Y417680D01*
X536877Y417740D01*
X536955Y417804D01*
X537029Y417870D01*
X537101Y417939D01*
X537170Y418011D01*
X537236Y418085D01*
X537300Y418163D01*
X537360Y418242D01*
X537417Y418324D01*
X537471Y418408D01*
X537521Y418494D01*
X537568Y418582D01*
X537612Y418672D01*
X537652Y418763D01*
X537688Y418856D01*
X537721Y418950D01*
X537750Y419046D01*
X537775Y419142D01*
X537796Y419239D01*
X537814Y419338D01*
X537827Y419436D01*
X537837Y419536D01*
X537843Y419635D01*
X537845Y419735D01*
X537845Y421005D01*
X537843Y421105D01*
X537837Y421204D01*
X537827Y421304D01*
X537814Y421402D01*
X537796Y421501D01*
X537775Y421598D01*
X537750Y421694D01*
X537721Y421790D01*
X537688Y421884D01*
X537652Y421977D01*
X537612Y422068D01*
X537568Y422158D01*
X537521Y422246D01*
X537471Y422332D01*
X537417Y422416D01*
X537360Y422498D01*
X537300Y422577D01*
X537236Y422655D01*
X537170Y422729D01*
X537101Y422801D01*
X537029Y422870D01*
X536955Y422936D01*
X536877Y423000D01*
X536798Y423060D01*
X536716Y423117D01*
X536632Y423171D01*
X536546Y423221D01*
X536458Y423268D01*
X536368Y423312D01*
X536277Y423352D01*
X536184Y423388D01*
X536090Y423421D01*
X535994Y423450D01*
X535898Y423475D01*
X535801Y423496D01*
X535702Y423514D01*
X535604Y423527D01*
X535504Y423537D01*
X535405Y423543D01*
X535305Y423545D01*
X531495Y423545D01*
X531495Y428625D01*
X537845Y428625D01*
D11*
X459940Y508260D02*
X650040Y508260D01*
X650417Y508255D01*
X650795Y508242D01*
X651171Y508219D01*
X651548Y508187D01*
X651923Y508145D01*
X652297Y508095D01*
X652670Y508035D01*
X653041Y507967D01*
X653410Y507889D01*
X653778Y507803D01*
X654143Y507707D01*
X654506Y507603D01*
X654866Y507490D01*
X655223Y507368D01*
X655577Y507237D01*
X655928Y507098D01*
X656275Y506950D01*
X656619Y506794D01*
X656959Y506630D01*
X657295Y506457D01*
X657626Y506277D01*
X657953Y506088D01*
X658275Y505891D01*
X658592Y505687D01*
X658905Y505475D01*
X659212Y505255D01*
X659513Y505028D01*
X659809Y504794D01*
X660099Y504552D01*
X660383Y504304D01*
X660661Y504049D01*
X660933Y503787D01*
X661199Y503518D01*
X661457Y503243D01*
X661709Y502962D01*
X661954Y502675D01*
X662192Y502382D01*
X662423Y502083D01*
X662646Y501779D01*
X662862Y501469D01*
X663070Y501154D01*
X663271Y500835D01*
X663463Y500510D01*
X663648Y500181D01*
X663825Y499847D01*
X663993Y499509D01*
X664154Y499168D01*
X664305Y498822D01*
X664449Y498473D01*
X664584Y498120D01*
X664710Y497765D01*
X664827Y497406D01*
X664936Y497044D01*
X665036Y496680D01*
X665127Y496314D01*
X665209Y495946D01*
X665282Y495575D01*
X665346Y495203D01*
X665401Y494830D01*
X665447Y494455D01*
X665484Y494080D01*
X665511Y493703D01*
X665530Y493326D01*
X665539Y492949D01*
X665539Y492571D01*
X665530Y492194D01*
X665511Y491817D01*
X665484Y491440D01*
X665447Y491065D01*
X665401Y490690D01*
X665346Y490317D01*
X665282Y489945D01*
X665209Y489574D01*
X665127Y489206D01*
X665036Y488840D01*
X664936Y488476D01*
X664827Y488114D01*
X664710Y487755D01*
X664584Y487400D01*
X664449Y487047D01*
X664305Y486698D01*
X664154Y486352D01*
X663993Y486011D01*
X663825Y485673D01*
X663648Y485339D01*
X663463Y485010D01*
X663271Y484685D01*
X663070Y484366D01*
X662862Y484051D01*
X662646Y483741D01*
X662423Y483437D01*
X662192Y483138D01*
X661954Y482845D01*
X661709Y482558D01*
X661457Y482277D01*
X661199Y482002D01*
X660933Y481733D01*
X660661Y481471D01*
X660383Y481216D01*
X660099Y480968D01*
X659809Y480726D01*
X659513Y480492D01*
X659212Y480265D01*
X658905Y480045D01*
X658592Y479833D01*
X658275Y479629D01*
X657953Y479432D01*
X657626Y479243D01*
X657295Y479063D01*
X656959Y478890D01*
X656619Y478726D01*
X656275Y478570D01*
X655928Y478422D01*
X655577Y478283D01*
X655223Y478152D01*
X654866Y478030D01*
X654506Y477917D01*
X654143Y477813D01*
X653778Y477717D01*
X653410Y477631D01*
X653041Y477553D01*
X652670Y477485D01*
X652297Y477425D01*
X651923Y477375D01*
X651548Y477333D01*
X651171Y477301D01*
X650795Y477278D01*
X650417Y477265D01*
X650040Y477260D01*
X459940Y477260D01*
X459563Y477265D01*
X459185Y477278D01*
X458809Y477301D01*
X458432Y477333D01*
X458057Y477375D01*
X457683Y477425D01*
X457310Y477485D01*
X456939Y477553D01*
X456570Y477631D01*
X456202Y477717D01*
X455837Y477813D01*
X455474Y477917D01*
X455114Y478030D01*
X454757Y478152D01*
X454403Y478283D01*
X454052Y478422D01*
X453705Y478570D01*
X453361Y478726D01*
X453021Y478890D01*
X452685Y479063D01*
X452354Y479243D01*
X452027Y479432D01*
X451705Y479629D01*
X451388Y479833D01*
X451075Y480045D01*
X450768Y480265D01*
X450467Y480492D01*
X450171Y480726D01*
X449881Y480968D01*
X449597Y481216D01*
X449319Y481471D01*
X449047Y481733D01*
X448781Y482002D01*
X448523Y482277D01*
X448271Y482558D01*
X448026Y482845D01*
X447788Y483138D01*
X447557Y483437D01*
X447334Y483741D01*
X447118Y484051D01*
X446910Y484366D01*
X446709Y484685D01*
X446517Y485010D01*
X446332Y485339D01*
X446155Y485673D01*
X445987Y486011D01*
X445826Y486352D01*
X445675Y486698D01*
X445531Y487047D01*
X445396Y487400D01*
X445270Y487755D01*
X445153Y488114D01*
X445044Y488476D01*
X444944Y488840D01*
X444853Y489206D01*
X444771Y489574D01*
X444698Y489945D01*
X444634Y490317D01*
X444579Y490690D01*
X444533Y491065D01*
X444496Y491440D01*
X444469Y491817D01*
X444450Y492194D01*
X444441Y492571D01*
X444441Y492949D01*
X444450Y493326D01*
X444469Y493703D01*
X444496Y494080D01*
X444533Y494455D01*
X444579Y494830D01*
X444634Y495203D01*
X444698Y495575D01*
X444771Y495946D01*
X444853Y496314D01*
X444944Y496680D01*
X445044Y497044D01*
X445153Y497406D01*
X445270Y497765D01*
X445396Y498120D01*
X445531Y498473D01*
X445675Y498822D01*
X445826Y499168D01*
X445987Y499509D01*
X446155Y499847D01*
X446332Y500181D01*
X446517Y500510D01*
X446709Y500835D01*
X446910Y501154D01*
X447118Y501469D01*
X447334Y501779D01*
X447557Y502083D01*
X447788Y502382D01*
X448026Y502675D01*
X448271Y502962D01*
X448523Y503243D01*
X448781Y503518D01*
X449047Y503787D01*
X449319Y504049D01*
X449597Y504304D01*
X449881Y504552D01*
X450171Y504794D01*
X450467Y505028D01*
X450768Y505255D01*
X451075Y505475D01*
X451388Y505687D01*
X451705Y505891D01*
X452027Y506088D01*
X452354Y506277D01*
X452685Y506457D01*
X453021Y506630D01*
X453361Y506794D01*
X453705Y506950D01*
X454052Y507098D01*
X454403Y507237D01*
X454757Y507368D01*
X455114Y507490D01*
X455474Y507603D01*
X455837Y507707D01*
X456202Y507803D01*
X456570Y507889D01*
X456939Y507967D01*
X457310Y508035D01*
X457683Y508095D01*
X458057Y508145D01*
X458432Y508187D01*
X458809Y508219D01*
X459185Y508242D01*
X459563Y508255D01*
X459940Y508260D01*
D19*
X546693Y461518D02*
X546792Y461520D01*
X546892Y461526D01*
X546991Y461535D01*
X547089Y461548D01*
X547187Y461565D01*
X547285Y461586D01*
X547381Y461611D01*
X547476Y461639D01*
X547570Y461671D01*
X547663Y461706D01*
X547755Y461745D01*
X547845Y461788D01*
X547933Y461833D01*
X548020Y461883D01*
X548104Y461935D01*
X548187Y461991D01*
X548267Y462049D01*
X548345Y462111D01*
X548420Y462176D01*
X548493Y462244D01*
X548563Y462314D01*
X548631Y462387D01*
X548696Y462462D01*
X548758Y462540D01*
X548816Y462620D01*
X548872Y462703D01*
X548924Y462787D01*
X548974Y462874D01*
X549019Y462962D01*
X549062Y463052D01*
X549101Y463144D01*
X549136Y463237D01*
X549168Y463331D01*
X549196Y463426D01*
X549221Y463522D01*
X549242Y463620D01*
X549259Y463718D01*
X549272Y463816D01*
X549281Y463915D01*
X549287Y464015D01*
X549289Y464114D01*
X546693Y461518D02*
X546549Y461520D01*
X546404Y461526D01*
X546260Y461535D01*
X546117Y461548D01*
X545973Y461565D01*
X545830Y461586D01*
X545688Y461611D01*
X545547Y461639D01*
X545406Y461671D01*
X545266Y461707D01*
X545127Y461746D01*
X544989Y461789D01*
X544853Y461836D01*
X544717Y461886D01*
X544583Y461940D01*
X544451Y461997D01*
X544320Y462058D01*
X544191Y462122D01*
X544063Y462190D01*
X543937Y462260D01*
X543813Y462335D01*
X543692Y462412D01*
X543572Y462493D01*
X543454Y462576D01*
X543339Y462663D01*
X543226Y462753D01*
X543115Y462846D01*
X543007Y462941D01*
X542901Y463040D01*
X542798Y463141D01*
X543123Y470606D02*
X543125Y470705D01*
X543131Y470805D01*
X543140Y470904D01*
X543153Y471002D01*
X543170Y471100D01*
X543191Y471198D01*
X543216Y471294D01*
X543244Y471389D01*
X543276Y471483D01*
X543311Y471576D01*
X543350Y471668D01*
X543393Y471758D01*
X543438Y471846D01*
X543488Y471933D01*
X543540Y472017D01*
X543596Y472100D01*
X543654Y472180D01*
X543716Y472258D01*
X543781Y472333D01*
X543849Y472406D01*
X543919Y472476D01*
X543992Y472544D01*
X544067Y472609D01*
X544145Y472671D01*
X544225Y472729D01*
X544308Y472785D01*
X544392Y472837D01*
X544479Y472887D01*
X544567Y472932D01*
X544657Y472975D01*
X544749Y473014D01*
X544842Y473049D01*
X544936Y473081D01*
X545031Y473109D01*
X545128Y473134D01*
X545225Y473155D01*
X545323Y473172D01*
X545421Y473185D01*
X545520Y473194D01*
X545620Y473200D01*
X545719Y473202D01*
X545855Y473200D01*
X545991Y473194D01*
X546127Y473185D01*
X546263Y473172D01*
X546398Y473154D01*
X546532Y473134D01*
X546666Y473109D01*
X546800Y473081D01*
X546932Y473048D01*
X547063Y473013D01*
X547194Y472973D01*
X547323Y472930D01*
X547451Y472884D01*
X547577Y472833D01*
X547703Y472780D01*
X547826Y472722D01*
X547948Y472662D01*
X548068Y472598D01*
X548187Y472530D01*
X548303Y472460D01*
X548417Y472386D01*
X548530Y472309D01*
X548640Y472228D01*
X544421Y468334D02*
X544335Y468387D01*
X544251Y468444D01*
X544169Y468503D01*
X544089Y468566D01*
X544012Y468632D01*
X543937Y468700D01*
X543865Y468772D01*
X543796Y468846D01*
X543730Y468923D01*
X543667Y469002D01*
X543607Y469084D01*
X543550Y469168D01*
X543496Y469254D01*
X543446Y469342D01*
X543399Y469432D01*
X543355Y469523D01*
X543316Y469617D01*
X543279Y469711D01*
X543247Y469807D01*
X543218Y469905D01*
X543193Y470003D01*
X543172Y470102D01*
X543154Y470202D01*
X543141Y470302D01*
X543131Y470403D01*
X543125Y470505D01*
X543123Y470606D01*
X547991Y466386D02*
X548077Y466333D01*
X548161Y466276D01*
X548243Y466217D01*
X548323Y466154D01*
X548400Y466088D01*
X548475Y466020D01*
X548547Y465948D01*
X548616Y465874D01*
X548682Y465797D01*
X548745Y465718D01*
X548805Y465636D01*
X548862Y465552D01*
X548916Y465466D01*
X548966Y465378D01*
X549013Y465288D01*
X549057Y465197D01*
X549096Y465103D01*
X549133Y465009D01*
X549165Y464913D01*
X549194Y464815D01*
X549219Y464717D01*
X549240Y464618D01*
X549258Y464518D01*
X549271Y464418D01*
X549281Y464317D01*
X549287Y464215D01*
X549289Y464114D01*
X547991Y466386D02*
X544421Y468334D01*
X553847Y470606D02*
X557093Y473202D01*
X557093Y461518D01*
X560338Y461518D02*
X553847Y461518D01*
M02*
