G04 EAGLE Gerber RS-274X export*
G75*
%MOMM*%
%FSLAX34Y34*%
%LPD*%
%INSoldermask Bottom*%
%IPPOS*%
%AMOC8*
5,1,8,0,0,1.08239X$1,22.5*%
G01*
%ADD10C,6.807200*%
%ADD11C,2.743200*%
%ADD12C,5.283200*%
%ADD13C,2.153200*%
%ADD14C,1.879600*%
%ADD15C,1.727200*%
%ADD16P,1.649562X8X22.500000*%
%ADD17P,1.649562X8X112.500000*%
%ADD18P,1.649562X8X202.500000*%
%ADD19C,1.311200*%
%ADD20C,0.959600*%


D10*
X552450Y-33020D03*
D11*
X326390Y474980D03*
D10*
X552450Y612140D03*
D12*
X777240Y528320D03*
D13*
X352840Y104140D03*
X552840Y104140D03*
D14*
X596900Y528320D03*
X495300Y528320D03*
X660400Y53340D03*
X660400Y154940D03*
D15*
X271780Y226060D02*
X271780Y241300D01*
X297180Y241300D02*
X297180Y226060D01*
X721360Y309880D02*
X736600Y309880D01*
X736600Y284480D02*
X721360Y284480D01*
X721360Y259080D02*
X736600Y259080D01*
X577850Y160020D02*
X577850Y144780D01*
X552450Y144780D02*
X552450Y160020D01*
X527050Y160020D02*
X527050Y144780D01*
X805180Y434340D02*
X805180Y449580D01*
X779780Y449580D02*
X779780Y434340D01*
X754380Y434340D02*
X754380Y449580D01*
X728980Y449580D02*
X728980Y434340D01*
X703580Y434340D02*
X703580Y449580D01*
X678180Y449580D02*
X678180Y434340D01*
X815340Y175260D02*
X815340Y160020D01*
X789940Y160020D02*
X789940Y175260D01*
X764540Y175260D02*
X764540Y160020D01*
X739140Y160020D02*
X739140Y175260D01*
X713740Y175260D02*
X713740Y160020D01*
X688340Y160020D02*
X688340Y175260D01*
X590550Y195580D02*
X590550Y210820D01*
X565150Y210820D02*
X565150Y195580D01*
X539750Y195580D02*
X539750Y210820D01*
X514350Y210820D02*
X514350Y195580D01*
X271780Y378460D02*
X271780Y393700D01*
X297180Y393700D02*
X297180Y378460D01*
X322580Y378460D02*
X322580Y393700D01*
X347980Y393700D02*
X347980Y378460D01*
X373380Y378460D02*
X373380Y393700D01*
X398780Y393700D02*
X398780Y378460D01*
X424180Y378460D02*
X424180Y393700D01*
X449580Y393700D02*
X449580Y378460D01*
X474980Y378460D02*
X474980Y393700D01*
X500380Y393700D02*
X500380Y378460D01*
X525780Y378460D02*
X525780Y393700D01*
X728980Y393700D02*
X728980Y378460D01*
X754380Y378460D02*
X754380Y393700D01*
X779780Y393700D02*
X779780Y378460D01*
X805180Y378460D02*
X805180Y393700D01*
X728980Y241300D02*
X728980Y226060D01*
X754380Y226060D02*
X754380Y241300D01*
X779780Y241300D02*
X779780Y226060D01*
X805180Y226060D02*
X805180Y241300D01*
X650240Y434340D02*
X650240Y449580D01*
X624840Y449580D02*
X624840Y434340D01*
X599440Y434340D02*
X599440Y449580D01*
X695960Y501650D02*
X711200Y501650D01*
X711200Y527050D02*
X695960Y527050D01*
X695960Y552450D02*
X711200Y552450D01*
X716280Y50800D02*
X731520Y50800D01*
X731520Y76200D02*
X716280Y76200D01*
X716280Y101600D02*
X731520Y101600D01*
D16*
X495300Y556260D03*
X596900Y556260D03*
X558800Y25400D03*
X660400Y25400D03*
D17*
X425450Y444500D03*
X425450Y546100D03*
X398780Y444500D03*
X398780Y546100D03*
D18*
X558800Y444500D03*
X457200Y444500D03*
D19*
X453390Y492760D03*
X656590Y492760D03*
D20*
X571500Y393700D03*
X678180Y284480D03*
M02*
