M48
;GenerationSoftware,Autodesk,EAGLE,9.2.2*%
;CreationDate,2020-10-15T14:51:57Z*%
FMAT,2
ICI,OFF
METRIC,TZ,000.000
T9C0.350
T8C0.600
T7C0.813
T6C1.016
T5C1.118
T4C1.300
T3C2.540
T2C5.080
T1C6.604
%
G90
M71
T1
X55245Y-3302
X55245Y61214
T2
X77724Y52832
T3
X32639Y47498
T4
X35284Y10414
X55284Y10414
T5
X66040Y15494
X66040Y5334
X59690Y52832
X49530Y52832
T6
X27178Y38608
X32258Y38608
X27178Y23368
X29718Y23368
X72898Y30988
X72898Y28448
X72898Y25908
X57785Y15240
X55245Y15240
X52705Y15240
X80518Y44196
X77978Y44196
X75438Y44196
X72898Y44196
X70358Y44196
X67818Y44196
X81534Y16764
X78994Y16764
X76454Y16764
X73914Y16764
X71374Y16764
X68834Y16764
X59055Y20320
X56515Y20320
X53975Y20320
X51435Y20320
X72390Y10160
X29718Y38608
X72390Y7620
X34798Y38608
X37338Y38608
X39878Y38608
X42418Y38608
X44958Y38608
X47498Y38608
X50038Y38608
X52578Y38608
X72898Y38608
X75438Y38608
X77978Y38608
X80518Y38608
X72898Y23368
X75438Y23368
X77978Y23368
X80518Y23368
X65024Y44196
X62484Y44196
X59944Y44196
X70358Y50165
X70358Y52705
X70358Y55245
X72390Y5080
T7
X55880Y44450
X45720Y44450
X49530Y55626
X59690Y55626
X55880Y2540
X66040Y2540
X42545Y44450
X42545Y54610
X39878Y44450
X39878Y54610
T8
X65659Y49276
X45339Y49276
T9
X67818Y28448
X57150Y39370
M30